<mxfile host="app.diagrams.net" modified="2021-03-30T22:01:33.030Z" agent="5.0 (Macintosh; Intel Mac OS X 10_14_6) AppleWebKit/537.36 (KHTML, like Gecko) Chrome/89.0.4389.90 Safari/537.36" etag="j8CIqhYTh-jZYFUaO1L0" version="14.5.3" type="github">
  <diagram id="yDUppfywmLEorkxN4P63" name="Page-1">
    <mxGraphModel dx="1102" dy="582" grid="1" gridSize="10" guides="1" tooltips="1" connect="1" arrows="1" fold="1" page="1" pageScale="1" pageWidth="1169" pageHeight="827" background="#FFFFFF" math="0" shadow="0">
      <root>
        <mxCell id="0" />
        <mxCell id="1" parent="0" />
        <mxCell id="wv7daCviZKQoiw0kIBDT-560" value="" style="fillColor=none;verticalAlign=top;fontStyle=0;shadow=0;imageAspect=0;recursiveResize=0;part=1;resizeWidth=0;expand=0;editable=0;movable=0;allowArrows=0;connectable=0;rotatable=0;resizable=0;pointerEvents=0;" parent="1" vertex="1">
          <mxGeometry x="152" y="570" width="188" height="200" as="geometry" />
        </mxCell>
        <mxCell id="wv7daCviZKQoiw0kIBDT-515" value="" style="fillColor=none;verticalAlign=top;fontStyle=0;shadow=0;imageAspect=0;recursiveResize=0;part=1;resizeWidth=0;connectable=0;allowArrows=0;expand=0;editable=0;movable=0;resizable=0;rotatable=0;cloneable=1;pointerEvents=0;" parent="1" vertex="1">
          <mxGeometry x="152" y="20" width="370" height="200" as="geometry" />
        </mxCell>
        <mxCell id="wv7daCviZKQoiw0kIBDT-550" value="" style="fillColor=none;verticalAlign=top;fontStyle=0;shadow=0;imageAspect=0;recursiveResize=0;part=1;resizeWidth=0;connectable=0;allowArrows=0;expand=0;editable=0;movable=0;resizable=0;rotatable=0;" parent="1" vertex="1">
          <mxGeometry x="152" y="360" width="370" height="200" as="geometry" />
        </mxCell>
        <mxCell id="wv7daCviZKQoiw0kIBDT-532" value="" style="fillColor=none;verticalAlign=top;fontStyle=0;shadow=0;imageAspect=0;recursiveResize=0;part=1;resizeWidth=0;connectable=0;allowArrows=0;expand=0;editable=0;movable=0;rotatable=0;resizable=0;cloneable=0;deletable=0;pointerEvents=0;" parent="1" vertex="1">
          <mxGeometry x="152" y="230" width="368" height="120" as="geometry" />
        </mxCell>
        <mxCell id="wv7daCviZKQoiw0kIBDT-516" value="&lt;font color=&quot;#ffffff&quot;&gt;VCO 1&lt;/font&gt;" style="rounded=0;whiteSpace=wrap;html=1;shadow=0;strokeColor=#000000;fontColor=#000000;fillColor=#000000;imageAspect=0;allowArrows=0;connectable=0;recursiveResize=0;expand=0;part=1;resizable=0;resizeWidth=0;movable=0;deletable=0;rotatable=0;editable=0;" parent="1" vertex="1">
          <mxGeometry x="310" y="20" width="50" height="17.78" as="geometry" />
        </mxCell>
        <mxCell id="wv7daCviZKQoiw0kIBDT-153" value="" style="verticalAlign=top;fontStyle=0;shadow=0;imageAspect=0;recursiveResize=0;part=1;editable=0;movable=0;resizeWidth=0;cloneable=0;fillColor=#eeeeee;strokeColor=#36393d;rotatable=0;" parent="1" vertex="1">
          <mxGeometry x="990.8724832214765" y="20" width="67.65100671140938" height="186.6666666666667" as="geometry" />
        </mxCell>
        <mxCell id="wv7daCviZKQoiw0kIBDT-183" value="" style="fillColor=#eeeeee;verticalAlign=top;fontStyle=0;shadow=0;imageAspect=0;recursiveResize=0;part=1;editable=0;movable=0;resizeWidth=0;cloneable=0;strokeColor=#36393d;rotatable=0;" parent="1" vertex="1">
          <mxGeometry x="1071.2080536912752" y="20" width="67.65100671140938" height="186.6666666666667" as="geometry" />
        </mxCell>
        <mxCell id="wv7daCviZKQoiw0kIBDT-214" value="" style="fillColor=none;verticalAlign=top;fontStyle=0;shadow=0;imageAspect=0;recursiveResize=0;part=1;resizeWidth=0;editable=0;movable=0;resizable=0;rotatable=0;" parent="1" vertex="1">
          <mxGeometry x="10" y="20" width="130" height="310" as="geometry" />
        </mxCell>
        <mxCell id="wv7daCviZKQoiw0kIBDT-207" value="" style="fillColor=#eeeeee;verticalAlign=top;fontStyle=0;shadow=0;imageAspect=0;recursiveResize=0;part=1;editable=0;movable=0;resizeWidth=0;cloneable=0;strokeColor=#36393d;resizable=0;rotatable=0;" parent="1" vertex="1">
          <mxGeometry x="990.87" y="428.89" width="147.99" height="201.11" as="geometry" />
        </mxCell>
        <mxCell id="wv7daCviZKQoiw0kIBDT-205" value="" style="fillColor=#eeeeee;verticalAlign=top;fontStyle=0;shadow=0;imageAspect=0;recursiveResize=0;part=1;editable=0;movable=0;resizeWidth=0;cloneable=0;strokeColor=#36393d;resizable=0;rotatable=0;" parent="1" vertex="1">
          <mxGeometry x="842.89" y="428.89" width="143.76" height="201.11" as="geometry" />
        </mxCell>
        <mxCell id="wv7daCviZKQoiw0kIBDT-203" value="" style="fillColor=#eeeeee;verticalAlign=top;fontStyle=0;shadow=0;imageAspect=0;recursiveResize=0;part=1;editable=0;movable=0;resizeWidth=0;cloneable=0;strokeColor=#36393d;resizable=0;rotatable=0;" parent="1" vertex="1">
          <mxGeometry x="688.13" y="428.89" width="152.21" height="201.11" as="geometry" />
        </mxCell>
        <mxCell id="wv7daCviZKQoiw0kIBDT-201" value="" style="fillColor=#eeeeee;verticalAlign=top;fontStyle=0;shadow=0;imageAspect=0;recursiveResize=0;part=1;editable=0;movable=0;resizeWidth=0;cloneable=0;strokeColor=#36393d;resizable=0;rotatable=0;" parent="1" vertex="1">
          <mxGeometry x="530" y="428.89" width="152.21" height="201.11" as="geometry" />
        </mxCell>
        <mxCell id="wv7daCviZKQoiw0kIBDT-253" value="" style="fillColor=none;verticalAlign=top;fontStyle=0;shadow=0;imageAspect=0;recursiveResize=0;part=1;movable=0;editable=0;deletable=0;resizable=0;resizeWidth=0;" parent="1" vertex="1">
          <mxGeometry x="360" y="670" width="320" height="210" as="geometry" />
        </mxCell>
        <mxCell id="wv7daCviZKQoiw0kIBDT-255" value="" style="fillColor=none;verticalAlign=top;fontStyle=0;shadow=0;imageAspect=0;recursiveResize=0;part=1;movable=0;editable=0;deletable=0;resizable=0;resizeWidth=0;" parent="1" vertex="1">
          <mxGeometry x="685" y="670" width="241" height="210" as="geometry" />
        </mxCell>
        <mxCell id="wv7daCviZKQoiw0kIBDT-257" value="" style="fillColor=none;verticalAlign=top;fontStyle=0;shadow=0;imageAspect=0;recursiveResize=0;part=1;movable=1;editable=0;allowArrows=0;resizable=0;resizeWidth=0;" parent="1" vertex="1">
          <mxGeometry x="931" y="670" width="209" height="210" as="geometry" />
        </mxCell>
        <mxCell id="wv7daCviZKQoiw0kIBDT-77" value="" style="verticalAlign=top;fontStyle=0;shadow=0;imageAspect=0;recursiveResize=0;part=1;editable=0;movable=0;resizeWidth=0;cloneable=0;fillColor=#eeeeee;strokeColor=#36393d;rotatable=0;" parent="1" vertex="1">
          <mxGeometry x="530" y="20" width="456.64429530201335" height="186.6666666666667" as="geometry" />
        </mxCell>
        <mxCell id="wv7daCviZKQoiw0kIBDT-254" value="&lt;font color=&quot;#ffffff&quot;&gt;OSC MIXER&lt;/font&gt;" style="rounded=0;whiteSpace=wrap;html=1;shadow=0;strokeColor=#000000;fontColor=#000000;fillColor=#000000;imageAspect=0;allowArrows=0;connectable=0;recursiveResize=0;expand=0;part=1;resizable=0;resizeWidth=0;movable=0;editable=0;deletable=0;" parent="1" vertex="1">
          <mxGeometry x="470" y="670" width="110" height="17.78" as="geometry" />
        </mxCell>
        <mxCell id="wv7daCviZKQoiw0kIBDT-212" value="ououi" style="shape=image;html=1;verticalAlign=top;verticalLabelPosition=bottom;labelBackgroundColor=#ffffff;imageAspect=0;aspect=fixed;image=https://cdn3.iconfinder.com/data/icons/construction-138/200/Ruler-128.png;shadow=0;strokeColor=#FFFFFF;fillColor=#000000;fontColor=#FFFFFF;rotation=-45;editable=0;movable=0;deletable=1;allowArrows=0;expand=0;" parent="1" vertex="1">
          <mxGeometry x="330" y="707.52" width="128" height="128" as="geometry" />
        </mxCell>
        <mxCell id="wv7daCviZKQoiw0kIBDT-196" value="" style="fillColor=#eeeeee;verticalAlign=top;fontStyle=0;shadow=0;imageAspect=0;recursiveResize=0;part=1;editable=0;movable=0;resizeWidth=0;cloneable=0;strokeColor=#36393d;resizable=0;rotatable=0;" parent="1" vertex="1">
          <mxGeometry x="990.8724832214765" y="322.2222222222223" width="147.98657718120805" height="97.77777777777779" as="geometry" />
        </mxCell>
        <mxCell id="wv7daCviZKQoiw0kIBDT-197" value="&lt;font color=&quot;#ffffff&quot;&gt;LFO 1&amp;amp;2&lt;/font&gt;" style="rounded=0;whiteSpace=wrap;html=1;shadow=0;strokeColor=#000000;fontColor=#000000;fillColor=#000000;imageAspect=0;allowArrows=0;connectable=0;recursiveResize=0;expand=0;part=1;resizable=0;resizeWidth=0;editable=0;movable=0;cloneable=0;rotatable=0;" parent="1" vertex="1">
          <mxGeometry x="990.8724832214765" y="322.2222222222223" width="71.87919463087248" height="17.77777777777778" as="geometry" />
        </mxCell>
        <mxCell id="wv7daCviZKQoiw0kIBDT-194" value="" style="fillColor=#eeeeee;verticalAlign=top;fontStyle=0;shadow=0;imageAspect=0;recursiveResize=0;part=1;editable=0;movable=0;resizeWidth=0;cloneable=0;strokeColor=#36393d;resizable=0;rotatable=0;" parent="1" vertex="1">
          <mxGeometry x="688.5570469798657" y="322.2222222222223" width="298.0872483221476" height="97.77777777777779" as="geometry" />
        </mxCell>
        <mxCell id="wv7daCviZKQoiw0kIBDT-192" value="" style="fillColor=#eeeeee;verticalAlign=top;fontStyle=0;shadow=0;imageAspect=0;recursiveResize=0;part=1;editable=0;movable=0;resizeWidth=0;cloneable=0;strokeColor=#36393d;resizable=0;rotatable=0;" parent="1" vertex="1">
          <mxGeometry x="530" y="322.2222222222223" width="152.21476510067112" height="97.77777777777779" as="geometry" />
        </mxCell>
        <mxCell id="wv7daCviZKQoiw0kIBDT-190" value="" style="fillColor=#eeeeee;verticalAlign=top;fontStyle=0;shadow=0;imageAspect=0;recursiveResize=0;part=1;editable=0;movable=0;resizeWidth=0;cloneable=0;strokeColor=#36393d;deletable=1;rotatable=0;resizable=0;" parent="1" vertex="1">
          <mxGeometry x="990.8724832214765" y="215.55555555555557" width="147.98657718120805" height="97.77777777777779" as="geometry" />
        </mxCell>
        <mxCell id="wv7daCviZKQoiw0kIBDT-187" value="" style="fillColor=#eeeeee;verticalAlign=top;fontStyle=0;shadow=0;imageAspect=0;recursiveResize=0;part=1;editable=0;movable=0;resizeWidth=0;cloneable=0;strokeColor=#36393d;deletable=1;rotatable=0;resizable=0;" parent="1" vertex="1">
          <mxGeometry x="762.5503355704698" y="215.55555555555557" width="224.0939597315436" height="97.77777777777779" as="geometry" />
        </mxCell>
        <mxCell id="wv7daCviZKQoiw0kIBDT-185" value="" style="fillColor=#eeeeee;verticalAlign=top;fontStyle=0;shadow=0;imageAspect=0;recursiveResize=0;part=1;editable=0;movable=0;resizeWidth=0;cloneable=0;strokeColor=#36393d;deletable=1;rotatable=0;resizable=0;" parent="1" vertex="1">
          <mxGeometry x="530" y="215.55555555555557" width="228.32214765100667" height="97.77777777777779" as="geometry" />
        </mxCell>
        <mxCell id="wv7daCviZKQoiw0kIBDT-186" value="&lt;font color=&quot;#ffffff&quot;&gt;FILTER&lt;/font&gt;" style="rounded=0;whiteSpace=wrap;html=1;shadow=0;strokeColor=#000000;fontColor=#000000;fillColor=#000000;imageAspect=0;allowArrows=0;connectable=0;recursiveResize=0;expand=0;part=1;resizable=0;resizeWidth=0;editable=0;movable=0;cloneable=0;deletable=1;rotatable=0;" parent="1" vertex="1">
          <mxGeometry x="530" y="215.56" width="70" height="17.78" as="geometry" />
        </mxCell>
        <mxCell id="wv7daCviZKQoiw0kIBDT-164" value="" style="group;editable=1;movable=0;resizeWidth=0;cloneable=0;" parent="1" vertex="1" connectable="0">
          <mxGeometry x="703.3557046979865" y="184.44444444444449" width="42.281879194630875" height="8.88888888888889" as="geometry" />
        </mxCell>
        <mxCell id="wv7daCviZKQoiw0kIBDT-163" value="" style="rounded=0;whiteSpace=wrap;html=1;shadow=0;strokeColor=#000000;fontColor=#000000;fillColor=#000000;editable=1;movable=0;resizeWidth=0;cloneable=0;" parent="wv7daCviZKQoiw0kIBDT-164" vertex="1">
          <mxGeometry width="42.281879194630875" height="8.88888888888889" as="geometry" />
        </mxCell>
        <mxCell id="wv7daCviZKQoiw0kIBDT-158" value="" style="pointerEvents=1;verticalLabelPosition=bottom;shadow=0;dashed=0;align=center;html=1;verticalAlign=top;shape=mxgraph.electrical.waveforms.sawtooth;fillColor=#000000;fontColor=#000000;strokeColor=#FFFFFF;editable=1;movable=0;resizeWidth=0;cloneable=0;" parent="wv7daCviZKQoiw0kIBDT-164" vertex="1">
          <mxGeometry width="42.281879194630875" height="8.88888888888889" as="geometry" />
        </mxCell>
        <mxCell id="wv7daCviZKQoiw0kIBDT-167" value="" style="group;editable=1;movable=0;resizeWidth=0;cloneable=0;" parent="1" vertex="1" connectable="0">
          <mxGeometry x="926.6778523489932" y="182.66666666666669" width="42.281879194630875" height="11.555555555555557" as="geometry" />
        </mxCell>
        <mxCell id="wv7daCviZKQoiw0kIBDT-165" value="" style="rounded=0;whiteSpace=wrap;html=1;shadow=0;strokeColor=#FFFFFF;fillColor=#000000;fontColor=#000000;editable=1;movable=0;resizeWidth=0;cloneable=0;" parent="wv7daCviZKQoiw0kIBDT-167" vertex="1">
          <mxGeometry width="42.281879194630875" height="11.555555555555557" as="geometry" />
        </mxCell>
        <mxCell id="wv7daCviZKQoiw0kIBDT-159" value="" style="pointerEvents=1;verticalLabelPosition=bottom;shadow=0;dashed=0;align=center;html=1;verticalAlign=top;shape=mxgraph.electrical.waveforms.sine_wave;fillColor=#000000;fontColor=#000000;strokeColor=#FFFFFF;editable=1;movable=0;resizeWidth=0;cloneable=0;" parent="wv7daCviZKQoiw0kIBDT-167" vertex="1">
          <mxGeometry width="42.281879194630875" height="11.555555555555557" as="geometry" />
        </mxCell>
        <mxCell id="wv7daCviZKQoiw0kIBDT-177" value="" style="pointerEvents=1;verticalLabelPosition=bottom;shadow=0;dashed=0;align=center;html=1;verticalAlign=top;shape=mxgraph.electrical.waveforms.sawtooth;fillColor=#000000;fontColor=#000000;strokeColor=#FFFFFF;editable=1;movable=0;resizeWidth=0;cloneable=0;" parent="wv7daCviZKQoiw0kIBDT-167" vertex="1">
          <mxGeometry y="0.9629629629629629" width="42.281879194630875" height="9.62962962962963" as="geometry" />
        </mxCell>
        <mxCell id="wv7daCviZKQoiw0kIBDT-178" value="" style="verticalLabelPosition=bottom;verticalAlign=top;html=1;shape=mxgraph.basic.acute_triangle;dx=0.5;shadow=0;fontColor=#000000;fillColor=none;strokeColor=#FFFFFF;editable=1;movable=0;resizeWidth=0;cloneable=0;" parent="wv7daCviZKQoiw0kIBDT-167" vertex="1">
          <mxGeometry y="-0.9629629629629629" width="42.281879194630875" height="12.518518518518519" as="geometry" />
        </mxCell>
        <mxCell id="wv7daCviZKQoiw0kIBDT-181" value="" style="pointerEvents=1;verticalLabelPosition=bottom;shadow=0;dashed=0;align=center;html=1;verticalAlign=top;shape=mxgraph.electrical.waveforms.square_wave;fillColor=#000000;fontColor=#000000;strokeColor=#FFFFFF;editable=1;movable=0;resizeWidth=0;cloneable=0;" parent="wv7daCviZKQoiw0kIBDT-167" vertex="1">
          <mxGeometry x="-2.536912751677852" y="2.3111111111111167" width="44.81879194630872" height="6.9333333333333345" as="geometry" />
        </mxCell>
        <mxCell id="wv7daCviZKQoiw0kIBDT-170" value="" style="group;editable=1;movable=0;resizeWidth=0;cloneable=0;" parent="1" vertex="1" connectable="0">
          <mxGeometry x="777.771812080537" y="183.5555555555556" width="44.81879194630872" height="10.66666666666667" as="geometry" />
        </mxCell>
        <mxCell id="wv7daCviZKQoiw0kIBDT-169" value="" style="rounded=0;whiteSpace=wrap;html=1;shadow=0;strokeColor=#FFFFFF;fillColor=#000000;fontColor=#000000;editable=1;movable=0;resizeWidth=0;cloneable=0;" parent="wv7daCviZKQoiw0kIBDT-170" vertex="1">
          <mxGeometry width="44.81879194630872" height="10.66666666666667" as="geometry" />
        </mxCell>
        <mxCell id="wv7daCviZKQoiw0kIBDT-160" value="" style="pointerEvents=1;verticalLabelPosition=bottom;shadow=0;dashed=0;align=center;html=1;verticalAlign=top;shape=mxgraph.electrical.waveforms.square_wave;fillColor=#000000;fontColor=#000000;strokeColor=#FFFFFF;editable=1;movable=0;resizeWidth=0;cloneable=0;" parent="wv7daCviZKQoiw0kIBDT-170" vertex="1">
          <mxGeometry y="2.1333333333333337" width="44.81879194630872" height="6.4" as="geometry" />
        </mxCell>
        <mxCell id="wv7daCviZKQoiw0kIBDT-172" value="" style="group;editable=1;movable=0;resizeWidth=0;cloneable=0;" parent="1" vertex="1" connectable="0">
          <mxGeometry x="855.5704697986578" y="183.5555555555556" width="42.281879194630875" height="11.555555555555557" as="geometry" />
        </mxCell>
        <mxCell id="wv7daCviZKQoiw0kIBDT-171" value="" style="rounded=0;whiteSpace=wrap;html=1;shadow=0;strokeColor=#FFFFFF;fillColor=#000000;fontColor=#000000;container=0;editable=1;movable=0;resizeWidth=0;cloneable=0;" parent="wv7daCviZKQoiw0kIBDT-172" vertex="1">
          <mxGeometry x="-0.8456375838926173" width="43.12751677852349" height="10.66666666666667" as="geometry" />
        </mxCell>
        <mxCell id="wv7daCviZKQoiw0kIBDT-162" value="" style="verticalLabelPosition=bottom;verticalAlign=top;html=1;shape=mxgraph.basic.acute_triangle;dx=0.5;shadow=0;fontColor=#000000;fillColor=none;strokeColor=#FFFFFF;editable=1;movable=0;resizeWidth=0;cloneable=0;" parent="wv7daCviZKQoiw0kIBDT-172" vertex="1">
          <mxGeometry width="42.281879194630875" height="11.555555555555557" as="geometry" />
        </mxCell>
        <mxCell id="wv7daCviZKQoiw0kIBDT-188" value="&lt;font color=&quot;#ffffff&quot;&gt;VCO 2&lt;/font&gt;" style="rounded=0;whiteSpace=wrap;html=1;shadow=0;strokeColor=#000000;fontColor=#000000;fillColor=#000000;imageAspect=0;allowArrows=0;connectable=0;recursiveResize=0;expand=0;part=1;resizable=0;resizeWidth=0;editable=0;movable=0;cloneable=0;deletable=1;rotatable=0;" parent="1" vertex="1">
          <mxGeometry x="762.5503355704698" y="215.55555555555557" width="42.281879194630875" height="17.77777777777778" as="geometry" />
        </mxCell>
        <mxCell id="wv7daCviZKQoiw0kIBDT-191" value="&lt;font color=&quot;#ffffff&quot;&gt;INVERTER&lt;/font&gt;" style="rounded=0;whiteSpace=wrap;html=1;shadow=0;strokeColor=#000000;fontColor=#000000;fillColor=#000000;imageAspect=0;allowArrows=0;connectable=0;recursiveResize=0;expand=0;part=1;resizable=0;resizeWidth=0;editable=0;movable=0;cloneable=0;deletable=1;rotatable=0;" parent="1" vertex="1">
          <mxGeometry x="990.8724832214765" y="215.55555555555557" width="71.87919463087248" height="17.77777777777778" as="geometry" />
        </mxCell>
        <mxCell id="wv7daCviZKQoiw0kIBDT-193" value="&lt;font color=&quot;#ffffff&quot;&gt;ADSR&lt;/font&gt;" style="rounded=0;whiteSpace=wrap;html=1;shadow=0;strokeColor=#000000;fontColor=#000000;fillColor=#000000;imageAspect=0;allowArrows=0;connectable=0;recursiveResize=0;expand=0;part=1;resizable=0;resizeWidth=0;editable=0;movable=0;cloneable=0;rotatable=0;" parent="1" vertex="1">
          <mxGeometry x="530" y="322.2222222222223" width="42.281879194630875" height="17.77777777777778" as="geometry" />
        </mxCell>
        <mxCell id="wv7daCviZKQoiw0kIBDT-195" value="&lt;font color=&quot;#ffffff&quot;&gt;AD&lt;/font&gt;" style="rounded=0;whiteSpace=wrap;html=1;shadow=0;strokeColor=#000000;fontColor=#000000;fillColor=#000000;imageAspect=0;allowArrows=0;connectable=0;recursiveResize=0;expand=0;part=1;resizable=0;resizeWidth=0;editable=0;movable=0;cloneable=0;rotatable=0;" parent="1" vertex="1">
          <mxGeometry x="688.5570469798657" y="322.2222222222223" width="42.281879194630875" height="17.77777777777778" as="geometry" />
        </mxCell>
        <mxCell id="wv7daCviZKQoiw0kIBDT-202" value="&lt;font color=&quot;#ffffff&quot;&gt;VCA&lt;/font&gt;" style="rounded=0;whiteSpace=wrap;html=1;shadow=0;strokeColor=#000000;fontColor=#000000;fillColor=#000000;imageAspect=0;allowArrows=0;connectable=0;recursiveResize=0;expand=0;part=1;resizable=0;resizeWidth=0;editable=0;movable=0;cloneable=0;rotatable=0;" parent="1" vertex="1">
          <mxGeometry x="530" y="428.89" width="50" height="17.78" as="geometry" />
        </mxCell>
        <mxCell id="wv7daCviZKQoiw0kIBDT-204" value="&lt;font color=&quot;#ffffff&quot;&gt;ATTENUATOR&lt;/font&gt;" style="rounded=0;whiteSpace=wrap;html=1;shadow=0;strokeColor=#000000;fontColor=#000000;fillColor=#000000;imageAspect=0;allowArrows=0;connectable=0;recursiveResize=0;expand=0;part=1;resizable=0;resizeWidth=0;editable=0;movable=0;cloneable=0;rotatable=0;" parent="1" vertex="1">
          <mxGeometry x="688.98" y="428.89" width="101.02" height="17.78" as="geometry" />
        </mxCell>
        <mxCell id="wv7daCviZKQoiw0kIBDT-206" value="&lt;font color=&quot;#ffffff&quot;&gt;SEQUENCER&lt;/font&gt;" style="rounded=0;whiteSpace=wrap;html=1;shadow=0;strokeColor=#000000;fontColor=#000000;fillColor=#000000;imageAspect=0;allowArrows=0;connectable=0;recursiveResize=0;expand=0;part=1;resizable=0;resizeWidth=0;editable=0;movable=0;cloneable=0;rotatable=0;" parent="1" vertex="1">
          <mxGeometry x="843.7315436241611" y="428.8888888888889" width="83.71812080536911" height="17.77777777777778" as="geometry" />
        </mxCell>
        <mxCell id="wv7daCviZKQoiw0kIBDT-208" value="&lt;font color=&quot;#ffffff&quot;&gt;MIDI&lt;/font&gt;" style="rounded=0;whiteSpace=wrap;html=1;shadow=0;strokeColor=#000000;fontColor=#000000;fillColor=#000000;imageAspect=0;allowArrows=0;connectable=0;recursiveResize=0;expand=0;part=1;resizable=0;resizeWidth=0;editable=0;movable=0;cloneable=0;rotatable=0;" parent="1" vertex="1">
          <mxGeometry x="991.718120805369" y="428.8888888888889" width="37.20805369127517" height="17.77777777777778" as="geometry" />
        </mxCell>
        <mxCell id="wv7daCviZKQoiw0kIBDT-215" value="&lt;font color=&quot;#ffffff&quot;&gt;LFO 1&lt;/font&gt;" style="rounded=0;whiteSpace=wrap;html=1;shadow=0;strokeColor=#000000;fontColor=#000000;fillColor=#000000;imageAspect=0;allowArrows=0;connectable=0;recursiveResize=0;expand=0;part=1;resizable=0;resizeWidth=0;editable=0;movable=0;rotatable=0;" parent="1" vertex="1">
          <mxGeometry x="40" y="20" width="50" height="17.78" as="geometry" />
        </mxCell>
        <mxCell id="wv7daCviZKQoiw0kIBDT-216" value="ououi" style="shape=image;html=1;verticalAlign=top;verticalLabelPosition=bottom;labelBackgroundColor=#ffffff;imageAspect=0;aspect=fixed;image=https://cdn3.iconfinder.com/data/icons/construction-138/200/Ruler-128.png;shadow=0;strokeColor=#FFFFFF;fillColor=#000000;fontColor=#FFFFFF;rotation=-45;movable=0;editable=0;deletable=1;allowArrows=0;expand=0;" parent="1" vertex="1">
          <mxGeometry x="382" y="707.52" width="128" height="128" as="geometry" />
        </mxCell>
        <mxCell id="wv7daCviZKQoiw0kIBDT-217" value="ououi" style="shape=image;html=1;verticalAlign=top;verticalLabelPosition=bottom;labelBackgroundColor=#ffffff;imageAspect=0;aspect=fixed;image=https://cdn3.iconfinder.com/data/icons/construction-138/200/Ruler-128.png;shadow=0;strokeColor=#FFFFFF;fillColor=#000000;fontColor=#FFFFFF;rotation=-45;movable=0;editable=0;deletable=1;allowArrows=0;expand=0;" parent="1" vertex="1">
          <mxGeometry x="433" y="707.52" width="128" height="128" as="geometry" />
        </mxCell>
        <mxCell id="wv7daCviZKQoiw0kIBDT-218" value="ououi" style="shape=image;html=1;verticalAlign=top;verticalLabelPosition=bottom;labelBackgroundColor=#ffffff;imageAspect=0;aspect=fixed;image=https://cdn3.iconfinder.com/data/icons/construction-138/200/Ruler-128.png;shadow=0;strokeColor=#FFFFFF;fillColor=#000000;fontColor=#FFFFFF;rotation=-45;movable=0;editable=0;deletable=1;allowArrows=0;expand=0;" parent="1" vertex="1">
          <mxGeometry x="485" y="707.52" width="128" height="128" as="geometry" />
        </mxCell>
        <mxCell id="wv7daCviZKQoiw0kIBDT-220" value="ououi" style="shape=image;html=1;verticalAlign=top;verticalLabelPosition=bottom;labelBackgroundColor=#ffffff;imageAspect=0;aspect=fixed;image=https://cdn3.iconfinder.com/data/icons/construction-138/200/Ruler-128.png;shadow=0;strokeColor=#FFFFFF;fillColor=#000000;fontColor=#FFFFFF;rotation=-45;movable=0;editable=0;deletable=1;allowArrows=0;expand=0;" parent="1" vertex="1">
          <mxGeometry x="535.11" y="707.01" width="128" height="128" as="geometry" />
        </mxCell>
        <mxCell id="wv7daCviZKQoiw0kIBDT-221" value="ououi" style="shape=image;html=1;verticalAlign=top;verticalLabelPosition=bottom;labelBackgroundColor=#ffffff;imageAspect=0;aspect=fixed;image=https://cdn3.iconfinder.com/data/icons/construction-138/200/Ruler-128.png;shadow=0;strokeColor=#FFFFFF;fillColor=#000000;fontColor=#FFFFFF;rotation=-45;movable=0;editable=0;deletable=1;allowArrows=0;expand=0;" parent="1" vertex="1">
          <mxGeometry x="587.11" y="707.01" width="128" height="128" as="geometry" />
        </mxCell>
        <mxCell id="wv7daCviZKQoiw0kIBDT-227" value="" style="shape=image;html=1;verticalAlign=top;verticalLabelPosition=bottom;labelBackgroundColor=#ffffff;imageAspect=0;aspect=fixed;image=https://cdn3.iconfinder.com/data/icons/construction-138/200/Ruler-128.png;shadow=0;strokeColor=#FFFFFF;fillColor=#000000;fontColor=#FFFFFF;rotation=-45;resizable=0;rotatable=0;movable=0;editable=0;deletable=1;allowArrows=0;expand=0;" parent="1" vertex="1">
          <mxGeometry x="963.3799999999999" y="708" width="128" height="128" as="geometry" />
        </mxCell>
        <mxCell id="wv7daCviZKQoiw0kIBDT-228" value="Decay" style="text;html=1;strokeColor=none;fillColor=none;align=center;verticalAlign=middle;whiteSpace=wrap;rounded=0;shadow=0;labelBackgroundColor=#FFFFFF;resizable=0;rotatable=0;movable=0;editable=0;deletable=0;allowArrows=0;expand=0;" parent="1" vertex="1">
          <mxGeometry x="1007.3799999999999" y="850.25" width="40" height="20" as="geometry" />
        </mxCell>
        <mxCell id="wv7daCviZKQoiw0kIBDT-243" value="Osc 2" style="text;html=1;strokeColor=none;fillColor=none;align=center;verticalAlign=middle;whiteSpace=wrap;rounded=0;shadow=0;labelBackgroundColor=#ffffff;fontColor=#000000;movable=0;editable=0;deletable=0;allowArrows=0;expand=0;" parent="1" vertex="1">
          <mxGeometry x="631.11" y="850.02" width="40" height="20" as="geometry" />
        </mxCell>
        <mxCell id="wv7daCviZKQoiw0kIBDT-244" value="Ext" style="text;html=1;strokeColor=none;fillColor=none;align=center;verticalAlign=middle;whiteSpace=wrap;rounded=0;shadow=0;labelBackgroundColor=#ffffff;fontColor=#000000;movable=0;editable=0;deletable=0;allowArrows=0;expand=0;" parent="1" vertex="1">
          <mxGeometry x="579.39" y="851.01" width="40" height="20" as="geometry" />
        </mxCell>
        <mxCell id="wv7daCviZKQoiw0kIBDT-226" value="&lt;br&gt;" style="shape=image;html=1;verticalAlign=top;verticalLabelPosition=bottom;labelBackgroundColor=#ffffff;imageAspect=0;aspect=fixed;image=https://cdn3.iconfinder.com/data/icons/construction-138/200/Ruler-128.png;shadow=0;strokeColor=#FFFFFF;fillColor=#000000;fontColor=#FFFFFF;rotation=-45;resizable=0;rotatable=0;movable=0;editable=0;deletable=1;allowArrows=0;expand=0;" parent="1" vertex="1">
          <mxGeometry x="908.87" y="708.5" width="128" height="128" as="geometry" />
        </mxCell>
        <mxCell id="wv7daCviZKQoiw0kIBDT-229" value="Attack" style="text;html=1;strokeColor=none;fillColor=none;align=center;verticalAlign=middle;whiteSpace=wrap;rounded=0;shadow=0;labelBackgroundColor=#FFFFFF;fontColor=#000000;resizable=0;rotatable=0;movable=0;editable=0;deletable=0;allowArrows=0;expand=0;" parent="1" vertex="1">
          <mxGeometry x="952.8699999999999" y="850.25" width="40" height="20" as="geometry" />
        </mxCell>
        <mxCell id="wv7daCviZKQoiw0kIBDT-225" value="&lt;br&gt;" style="shape=image;html=1;verticalAlign=top;verticalLabelPosition=bottom;labelBackgroundColor=#ffffff;imageAspect=0;aspect=fixed;image=https://cdn3.iconfinder.com/data/icons/construction-138/200/Ruler-128.png;shadow=0;strokeColor=#FFFFFF;fillColor=#000000;fontColor=#FFFFFF;rotation=-45;movable=0;editable=0;deletable=1;allowArrows=0;expand=0;resizable=0;rotatable=0;" parent="1" vertex="1">
          <mxGeometry x="824.87" y="707.01" width="128" height="128" as="geometry" />
        </mxCell>
        <mxCell id="wv7daCviZKQoiw0kIBDT-230" value="Release" style="text;html=1;strokeColor=none;fillColor=none;align=center;verticalAlign=middle;whiteSpace=wrap;rounded=0;shadow=0;labelBackgroundColor=#FFFFFF;fontColor=#000000;movable=0;editable=0;deletable=0;allowArrows=0;expand=0;" parent="1" vertex="1">
          <mxGeometry x="870.89" y="851.01" width="40" height="20" as="geometry" />
        </mxCell>
        <mxCell id="wv7daCviZKQoiw0kIBDT-224" value="&lt;br&gt;" style="shape=image;html=1;verticalAlign=top;verticalLabelPosition=bottom;labelBackgroundColor=#ffffff;imageAspect=0;aspect=fixed;image=https://cdn3.iconfinder.com/data/icons/construction-138/200/Ruler-128.png;shadow=0;strokeColor=#FFFFFF;fillColor=#000000;fontColor=#FFFFFF;rotation=-45;movable=0;editable=0;deletable=1;allowArrows=0;expand=0;resizable=0;rotatable=0;" parent="1" vertex="1">
          <mxGeometry x="769.89" y="707.01" width="128" height="128" as="geometry" />
        </mxCell>
        <mxCell id="wv7daCviZKQoiw0kIBDT-231" value="Sustain" style="text;html=1;strokeColor=none;fillColor=none;align=center;verticalAlign=middle;whiteSpace=wrap;rounded=0;shadow=0;labelBackgroundColor=#FFFFFF;fontColor=#000000;movable=0;editable=0;deletable=0;allowArrows=0;expand=0;" parent="1" vertex="1">
          <mxGeometry x="813.89" y="851.01" width="40" height="20" as="geometry" />
        </mxCell>
        <mxCell id="wv7daCviZKQoiw0kIBDT-241" value="" style="group;movable=0;editable=0;deletable=0;container=0;" parent="1" vertex="1" connectable="0">
          <mxGeometry x="689.8703320081219" y="680.0003320081219" width="181.01933598375626" height="194.50966799187813" as="geometry" />
        </mxCell>
        <mxCell id="wv7daCviZKQoiw0kIBDT-249" value="" style="shape=image;verticalLabelPosition=bottom;labelBackgroundColor=#ffffff;verticalAlign=top;aspect=fixed;imageAspect=0;image=data:image/png,iVBORw0KGgoAAAANSUhEUgAAACQAAAAbCAYAAAAULC3gAAABuklEQVRYCe2Wy26CQBSGfcVqaqsPULQulWp3PoPKsupzKMTERAhtcGOoO9hUXbnVGC9/c7AQU+hwcWxcOAkhmcuZj2/mnJDClbXUlfHgBhR2IkxDh8MBw+EQmqZit9uFxeIyzgSaTCYoFosolZ7RaDQw+5px2ZQVhAmkKArS6TvnyeUeUa2+oC/3L2qLCdTr9TwgAstk0hCEJzSbl7MVGaher4MsEZhrS1Fk7rYiA9HxaZoGURQdKLJVKAhoSS3M53PWtYg1FhnIMD6w2Wxg2za63a5nK5/PofZagyzzsRULyP3U5XIJVVUhihXPliDwsZUIiMCOtizuthIDhdmSJCnR3Tob6NRWp9Px3S1KhjhVngvQb1uVk7tFmUi2FouFO4355grk2rJsC0G2BoMB9vv9/wK5u1EmjkYjlCtlLxOPtlpMW9wNuUCeLctCu/2Gh58q79YtshXUYgAZQesj9f1lyzRN33omkPlpIpu9dzLn3F8PqlvWiS2KO51O4wGt12vouo7x2HAKoW91gg6yZRgG9Hcdq9XKF4FpiGZvt9tYdcS3Q0AH1SWKG9RCgYIWXbLvBhRm9+oMfQMnDkEK5UTu4AAAAABJRU5ErkJggg==;movable=0;editable=0;deletable=0;allowArrows=0;expand=0;" parent="1" vertex="1">
          <mxGeometry x="380.34000000000003" y="850.52" width="27.32" height="20.49" as="geometry" />
        </mxCell>
        <mxCell id="wv7daCviZKQoiw0kIBDT-250" value="" style="shape=image;verticalLabelPosition=bottom;labelBackgroundColor=#ffffff;verticalAlign=top;aspect=fixed;imageAspect=0;image=data:image/png,iVBORw0KGgoAAAANSUhEUgAAACYAAAAaCAYAAADbhS54AAABkElEQVRYCe2Xv2vCQBTH/RdraDpUqGAtWS2YODqrk9aiQwTda3Bw9g8Qi4Ogi0hKjQjiECQZjH7LORxpwoUzjSI0D96Qdz/e5765vNwlcKOWuFEuULD9fg9VVVEsFkN5qVTC8nsZ2TopmP6lI5V6RDJ5F8pF8R69Xi96sNlsRoGyL1koiszludccHdfptKMHm06nNEGrpWKxWHD5cDik49rtC4Npmsa9csMwYjDEigVsGFou3Jv/3ys2n88xGAxg27ZPO6qYu45dQzHHcSArMiRJQr/fZ4Ntt1uk008QH0SMx2NfR1YgbLmwLAuCIJxKTf297pueKkZWMJlMMPocgQzitbBgu92O1r9qrepLR8FIy/F4xOFw8HUKClwFLAiA1RaDsZRhxWPFWMqw4m7FGs0GNpsNl+u6zv9VspIHxd1gmecMCgWFy/P5/GXBSGEWhCRNEuZoTu4aXvtVx7yNPM/kEtPtfqBSKaNcPt9rb7XTSdmb689gZELTNLFaGSCv9Vxfr9cgfx2vRQLmnTSK5x8BrvD+s0Y3BAAAAABJRU5ErkJggg==;movable=0;editable=0;deletable=0;allowArrows=0;expand=0;" parent="1" vertex="1">
          <mxGeometry x="431.38" y="851.52" width="29.23" height="20" as="geometry" />
        </mxCell>
        <mxCell id="wv7daCviZKQoiw0kIBDT-251" value="" style="shape=image;verticalLabelPosition=bottom;labelBackgroundColor=#ffffff;verticalAlign=top;aspect=fixed;imageAspect=0;image=data:image/png,iVBORw0KGgoAAAANSUhEUgAAACIAAAAYCAYAAACfpi8JAAACf0lEQVRIDe2W30siURTH+xfX2WzVzIJ1ZINy3YrsodZye1t9EEEn1nX1KQjxZUWlhYpAsadWwQf7oRAKbiboqiSl3+Vcl4F0xp+09LAXBmbOved7Pvfcc65O4YWMqRfCgYlBLi4uEIlEUK1WJ9rTRCA3+Rusra2C5/VwOBx4fHwcG2ZskFqthh3rDjhOAYXiFTQaNcLh8L8Fabfb2Puyh5kZJYMgEHoMBh6Xl5djwYyVkWg0Cu2c9m9wA3w+nwi0ZdlCvV4fGWZkkHQ6Dd7As8Aq1RvEYjGUy2VYrVZmUyqn4ff7nxekVCph3bwu7v7g4AD39/cs6NXVFfT6t2xOp9MhcZYYCWbojDSbTdhsNrxWciyYzfYZlUpFDNZqtXB0dASO68wb3xtRLBbF+UEvQ4Ps7++DjoKKcmXlA/KFfI92o9GAy+ViawjIbrfj4eGhZ52UYSgQqoOFhflO2ud1SKVSoM6RGpQFAiVgtVqFUOi71LIe20CQXC6HpeUlJjyt5HD443DgLs9/nkMzq2E+VDeZTKYncLehL0j1dxUWi0W8tLzer0O1JtVTIBBgIJSZzY+boAuw35AFoeJzC25QO5LY9rYFd3d3/bSezFEh7+5+Yr6k4f3mfTLf/SELEgqFMKudZUKLi+9wfX3d7TvwO5fLQs/rmYZON4d4PC7rIwmSTCbFO4EK7uwsAcrQqIN8jo+PQbVFWTUal2VbWhLEbDYzR/pBCwaDoDMfd1BLC4Jb1PN4PJJSkiAmk4k5Op3Oif9nUNTb21/Y2OhsThCE4UGo3U5PT2XTKKk0wJjNZnFycoJCoSC5UjIjdFlNchySkYC+mpIgckLPaf8P0p3dP6Da6TewrkbUAAAAAElFTkSuQmCC;movable=0;editable=0;deletable=0;allowArrows=0;expand=0;" parent="1" vertex="1">
          <mxGeometry x="482.83000000000004" y="851.02" width="28.33" height="20" as="geometry" />
        </mxCell>
        <mxCell id="wv7daCviZKQoiw0kIBDT-252" value="" style="shape=image;verticalLabelPosition=bottom;labelBackgroundColor=#ffffff;verticalAlign=top;aspect=fixed;imageAspect=0;image=data:image/png,iVBORw0KGgoAAAANSUhEUgAAACQAAAAcCAYAAAAJKR1YAAAEAklEQVRYCe1WWU9aURDuX6y0oODeVJZS4EFBaZpGKkRMtYuUxgejiMUFjIk2GiMGbRsf5AWVaqLGJdYtEYyoMcZlmpl6xnsr6rXhoQ+d5Oae5ZuZ78w5M+c8gH9MHvxjfOA/obt25MYIZTIZCId7we1xg9vthtHo6F22cjKfldDh4SE0NDRAWVkpPFKrQKVSgV5fAVNTU3/l9PT0lHS/f/8Gu7u7t9rISijYGYT8fA3k5T0Eg0EPavVjatfVvb7VWLbJ8/NzaGlpAbPZDCaTEV68cMLa2lo2KI1dI7TxcwNKS0uIgNn8DObm5sDpdFJfp9PC2dmZzFgqtQszMzM3OkkkElBYqCN9XKBKlQdNTY0yG9LONUI9Pd2sPDIyAhcXF+D3+3lsf3+f9b9+nYCammqwWi1QWVkJ/f39PCcaPl8z6WoK8qGqqpLauLC9vT0Bkf1lhNC5xfKclEpKS+Dg4IDAgUA7E9rc3KSxpaUlMBoNPI6rf/KkHFZWVmQOKiqeEsbusENvby/jMarZREYInYnzUu+tZ3xnZycbEvv//sN7GqMteNvE8319fayXTqcpKZCs/5Mf4vE44zD62URGaHxinBWGh4cZHwp95nEkhNtWVFRIYw6HHba2tuCxWkV9r9fLeslkkvVwO5eXl7kfCoUYJ23ICLW2trKCNPQdwQ4eX19fh3h8ivuRSITsYYnASNjtVWx/bGyMcZOTk7QQxODX3PyBcdKGjJDTWUNgnU4HJycnjGtvl56hDWhra2NHi4uLhBPnyfzczHrd3VcJgjgsAbrLjMNkyCYyQsXFReSoutohw0oJ4DnDKOAqi0uKmbhIBqPJyLp+/0cmLrLqatFaiEaj18qIjJDP5wOD0QCxWIyNYiMYDLJhrEuiaNa6ahlns1kJIyXkcrloTKNRs+MvXwbZll6vh9lZebbJCO3s7MDCwgLg1SGVgYEBNhIIBLgtrTtW629CpmcmVrVYLYTF1BeCkXr37i1gXcLSIj2riJEREkp//hPTCSZRXl5G7YKCfBA1CfFiywQhrGlabQFh8bqQyvb2NiR/JGF+fp63XMwrInR0dATWyy0RWYLFUnqNCEJiy1KpFF0TiMeapVQUEUJjeHYwVd3uOohEwoAOpWKz2SgaTy+3J5mc5aiGw2Ep9Na2YkKYsnjG8PLNZK7uM2Hd4XAQAcxUlMHBq3N3n2eLYkLC8U1/j8dDhLBiYw3zeuupj28pvEKUSs4ISS/gWGwMRE3DmoXRVSo5IzQ9Pc1nRlRtPNBDQ0NKuRAuZ4SOj4/p/S2yEP8vX72k++s+jHJGCJ3ige/q7oLGxjeAz+DV1dX7cMlthIRnrMT4HEnvpem1KcaV/nMaIaVOb8P9ApxK3cOKdAD4AAAAAElFTkSuQmCC;movable=0;editable=0;deletable=0;allowArrows=0;expand=0;" parent="1" vertex="1">
          <mxGeometry x="534.5400000000001" y="849.77" width="28.92" height="22.49" as="geometry" />
        </mxCell>
        <mxCell id="wv7daCviZKQoiw0kIBDT-256" value="&lt;font color=&quot;#ffffff&quot;&gt;ADSR ENVELOPE&lt;/font&gt;" style="rounded=0;whiteSpace=wrap;html=1;shadow=0;strokeColor=#000000;fontColor=#000000;fillColor=#000000;imageAspect=0;allowArrows=0;connectable=0;recursiveResize=0;expand=0;part=1;resizable=0;resizeWidth=0;movable=0;editable=0;deletable=0;" parent="1" vertex="1">
          <mxGeometry x="732.59" y="670" width="147.41" height="17.78" as="geometry" />
        </mxCell>
        <mxCell id="wv7daCviZKQoiw0kIBDT-258" value="&lt;font color=&quot;#ffffff&quot;&gt;AD ENVELOPE&lt;/font&gt;" style="rounded=0;whiteSpace=wrap;html=1;shadow=0;strokeColor=#000000;fontColor=#000000;fillColor=#000000;imageAspect=0;allowArrows=0;connectable=0;recursiveResize=0;expand=0;part=1;resizable=0;resizeWidth=0;movable=0;editable=0;deletable=0;" parent="1" vertex="1">
          <mxGeometry x="940" y="670" width="111.41" height="17.78" as="geometry" />
        </mxCell>
        <mxCell id="wv7daCviZKQoiw0kIBDT-270" value="" style="endArrow=none;html=1;strokeColor=#FFFFFF;strokeWidth=3;fontColor=#000000;editable=0;movable=0;deletable=0;" parent="1" edge="1">
          <mxGeometry width="50" height="50" relative="1" as="geometry">
            <mxPoint x="620" y="730" as="sourcePoint" />
            <mxPoint x="670" y="680" as="targetPoint" />
          </mxGeometry>
        </mxCell>
        <mxCell id="wv7daCviZKQoiw0kIBDT-78" value="&lt;font color=&quot;#ffffff&quot;&gt;VCO 1&lt;/font&gt;" style="rounded=0;whiteSpace=wrap;html=1;shadow=0;strokeColor=#000000;fontColor=#000000;fillColor=#000000;imageAspect=0;allowArrows=0;connectable=0;recursiveResize=0;expand=0;part=1;resizable=0;editable=0;movable=0;resizeWidth=0;cloneable=0;rotatable=0;" parent="1" vertex="1">
          <mxGeometry x="530" y="20" width="169" height="20" as="geometry" />
        </mxCell>
        <mxCell id="wv7daCviZKQoiw0kIBDT-349" value="" style="group;resizeWidth=0;allowArrows=0;expand=0;movable=0;resizable=0;rotatable=0;" parent="1" vertex="1" connectable="0">
          <mxGeometry x="83" y="56.33" width="28" height="88.50000000000004" as="geometry" />
        </mxCell>
        <mxCell id="wv7daCviZKQoiw0kIBDT-344" value="" style="shape=image;verticalLabelPosition=bottom;labelBackgroundColor=#ffffff;verticalAlign=top;aspect=fixed;imageAspect=0;image=data:image/png,iVBORw0KGgoAAAANSUhEUgAAACQAAAAbCAYAAAAULC3gAAABuklEQVRYCe2Wy26CQBSGfcVqaqsPULQulWp3PoPKsupzKMTERAhtcGOoO9hUXbnVGC9/c7AQU+hwcWxcOAkhmcuZj2/mnJDClbXUlfHgBhR2IkxDh8MBw+EQmqZit9uFxeIyzgSaTCYoFosolZ7RaDQw+5px2ZQVhAmkKArS6TvnyeUeUa2+oC/3L2qLCdTr9TwgAstk0hCEJzSbl7MVGaher4MsEZhrS1Fk7rYiA9HxaZoGURQdKLJVKAhoSS3M53PWtYg1FhnIMD6w2Wxg2za63a5nK5/PofZagyzzsRULyP3U5XIJVVUhihXPliDwsZUIiMCOtizuthIDhdmSJCnR3Tob6NRWp9Px3S1KhjhVngvQb1uVk7tFmUi2FouFO4355grk2rJsC0G2BoMB9vv9/wK5u1EmjkYjlCtlLxOPtlpMW9wNuUCeLctCu/2Gh58q79YtshXUYgAZQesj9f1lyzRN33omkPlpIpu9dzLn3F8PqlvWiS2KO51O4wGt12vouo7x2HAKoW91gg6yZRgG9Hcdq9XKF4FpiGZvt9tYdcS3Q0AH1SWKG9RCgYIWXbLvBhRm9+oMfQMnDkEK5UTu4AAAAABJRU5ErkJggg==;movable=0;editable=0;resizeWidth=0;allowArrows=0;expand=0;resizable=0;rotatable=0;" parent="wv7daCviZKQoiw0kIBDT-349" vertex="1">
          <mxGeometry x="2.3799999999999955" y="15.170000000000002" width="24" height="18" as="geometry" />
        </mxCell>
        <mxCell id="wv7daCviZKQoiw0kIBDT-345" value="" style="shape=image;verticalLabelPosition=bottom;labelBackgroundColor=#ffffff;verticalAlign=top;aspect=fixed;imageAspect=0;image=data:image/png,iVBORw0KGgoAAAANSUhEUgAAACIAAAAYCAYAAACfpi8JAAACf0lEQVRIDe2W30siURTH+xfX2WzVzIJ1ZINy3YrsodZye1t9EEEn1nX1KQjxZUWlhYpAsadWwQf7oRAKbiboqiSl3+Vcl4F0xp+09LAXBmbOved7Pvfcc65O4YWMqRfCgYlBLi4uEIlEUK1WJ9rTRCA3+Rusra2C5/VwOBx4fHwcG2ZskFqthh3rDjhOAYXiFTQaNcLh8L8Fabfb2Puyh5kZJYMgEHoMBh6Xl5djwYyVkWg0Cu2c9m9wA3w+nwi0ZdlCvV4fGWZkkHQ6Dd7As8Aq1RvEYjGUy2VYrVZmUyqn4ff7nxekVCph3bwu7v7g4AD39/cs6NXVFfT6t2xOp9MhcZYYCWbojDSbTdhsNrxWciyYzfYZlUpFDNZqtXB0dASO68wb3xtRLBbF+UEvQ4Ps7++DjoKKcmXlA/KFfI92o9GAy+ViawjIbrfj4eGhZ52UYSgQqoOFhflO2ud1SKVSoM6RGpQFAiVgtVqFUOi71LIe20CQXC6HpeUlJjyt5HD443DgLs9/nkMzq2E+VDeZTKYncLehL0j1dxUWi0W8tLzer0O1JtVTIBBgIJSZzY+boAuw35AFoeJzC25QO5LY9rYFd3d3/bSezFEh7+5+Yr6k4f3mfTLf/SELEgqFMKudZUKLi+9wfX3d7TvwO5fLQs/rmYZON4d4PC7rIwmSTCbFO4EK7uwsAcrQqIN8jo+PQbVFWTUal2VbWhLEbDYzR/pBCwaDoDMfd1BLC4Jb1PN4PJJSkiAmk4k5Op3Oif9nUNTb21/Y2OhsThCE4UGo3U5PT2XTKKk0wJjNZnFycoJCoSC5UjIjdFlNchySkYC+mpIgckLPaf8P0p3dP6Da6TewrkbUAAAAAElFTkSuQmCC;movable=0;editable=0;resizeWidth=0;allowArrows=0;expand=0;resizable=0;rotatable=0;" parent="wv7daCviZKQoiw0kIBDT-349" vertex="1">
          <mxGeometry x="3.3799999999999955" y="31.570000000000007" width="21.25" height="15" as="geometry" />
        </mxCell>
        <mxCell id="wv7daCviZKQoiw0kIBDT-346" value="" style="shape=image;verticalLabelPosition=bottom;labelBackgroundColor=#ffffff;verticalAlign=top;aspect=fixed;imageAspect=0;image=data:image/png,iVBORw0KGgoAAAANSUhEUgAAACQAAAAcCAYAAAAJKR1YAAAEAklEQVRYCe1WWU9aURDuX6y0oODeVJZS4EFBaZpGKkRMtYuUxgejiMUFjIk2GiMGbRsf5AWVaqLGJdYtEYyoMcZlmpl6xnsr6rXhoQ+d5Oae5ZuZ78w5M+c8gH9MHvxjfOA/obt25MYIZTIZCId7we1xg9vthtHo6F22cjKfldDh4SE0NDRAWVkpPFKrQKVSgV5fAVNTU3/l9PT0lHS/f/8Gu7u7t9rISijYGYT8fA3k5T0Eg0EPavVjatfVvb7VWLbJ8/NzaGlpAbPZDCaTEV68cMLa2lo2KI1dI7TxcwNKS0uIgNn8DObm5sDpdFJfp9PC2dmZzFgqtQszMzM3OkkkElBYqCN9XKBKlQdNTY0yG9LONUI9Pd2sPDIyAhcXF+D3+3lsf3+f9b9+nYCammqwWi1QWVkJ/f39PCcaPl8z6WoK8qGqqpLauLC9vT0Bkf1lhNC5xfKclEpKS+Dg4IDAgUA7E9rc3KSxpaUlMBoNPI6rf/KkHFZWVmQOKiqeEsbusENvby/jMarZREYInYnzUu+tZ3xnZycbEvv//sN7GqMteNvE8319fayXTqcpKZCs/5Mf4vE44zD62URGaHxinBWGh4cZHwp95nEkhNtWVFRIYw6HHba2tuCxWkV9r9fLeslkkvVwO5eXl7kfCoUYJ23ICLW2trKCNPQdwQ4eX19fh3h8ivuRSITsYYnASNjtVWx/bGyMcZOTk7QQxODX3PyBcdKGjJDTWUNgnU4HJycnjGtvl56hDWhra2NHi4uLhBPnyfzczHrd3VcJgjgsAbrLjMNkyCYyQsXFReSoutohw0oJ4DnDKOAqi0uKmbhIBqPJyLp+/0cmLrLqatFaiEaj18qIjJDP5wOD0QCxWIyNYiMYDLJhrEuiaNa6ahlns1kJIyXkcrloTKNRs+MvXwbZll6vh9lZebbJCO3s7MDCwgLg1SGVgYEBNhIIBLgtrTtW629CpmcmVrVYLYTF1BeCkXr37i1gXcLSIj2riJEREkp//hPTCSZRXl5G7YKCfBA1CfFiywQhrGlabQFh8bqQyvb2NiR/JGF+fp63XMwrInR0dATWyy0RWYLFUnqNCEJiy1KpFF0TiMeapVQUEUJjeHYwVd3uOohEwoAOpWKz2SgaTy+3J5mc5aiGw2Ep9Na2YkKYsnjG8PLNZK7uM2Hd4XAQAcxUlMHBq3N3n2eLYkLC8U1/j8dDhLBiYw3zeuupj28pvEKUSs4ISS/gWGwMRE3DmoXRVSo5IzQ9Pc1nRlRtPNBDQ0NKuRAuZ4SOj4/p/S2yEP8vX72k++s+jHJGCJ3ige/q7oLGxjeAz+DV1dX7cMlthIRnrMT4HEnvpem1KcaV/nMaIaVOb8P9ApxK3cOKdAD4AAAAAElFTkSuQmCC;movable=0;editable=0;resizeWidth=0;allowArrows=0;expand=0;resizable=0;rotatable=0;" parent="wv7daCviZKQoiw0kIBDT-349" vertex="1">
          <mxGeometry x="3.3799999999999955" y="70.83000000000003" width="22.72" height="17.67" as="geometry" />
        </mxCell>
        <mxCell id="wv7daCviZKQoiw0kIBDT-347" value="" style="shape=image;verticalLabelPosition=bottom;labelBackgroundColor=#ffffff;verticalAlign=top;aspect=fixed;imageAspect=0;image=data:image/png,iVBORw0KGgoAAAANSUhEUgAAABwAAAAaCAYAAACkVDyJAAAByUlEQVRIDe2UwUsCQRTG/RfzYrRq5KGStFO6N7FELb1YarChIObFiwfRSDT2qHbxIIh4UNAUFMGDKArCi3mxw7pOrJhJhAsf+2b2vfnNfPsYDez40eyYB3vg1h3fiqWtVgui0SgIgkAVf47DZDJZ2fBWgMlkEvR6DjjuiMp4bIR2u70ecLFYQK/Xg+5Hl2owGKwUSxPkZFrtAfh8d5DNZlCiKMJ0OpVS6Jt5wnQ6DXa7DWy2Kyqe56Fer9NCeSABU6kU2kisnM1m8hQaM4F+vx93bDKdgNl8Dpyew7EovtFCeSABM5mMfJoZM4EejwcBZMeNRgO8t14c53KvuMhoNILyexlKpRLK5brB7z8GFotFBIQfw0vAWCwGFssFlcGgx+/ZlyzzVPJJ5gkTiQR2XbPZZAKd104E8Lwd3B43ivyGTqcjX5sZM4GkI2u1GszncybQ4XQgsFDI0y4mXU26W+1hApVFSkslYKVSUaaqjv82MHAfgHwhD9ZLK1r6aycUnr5uEnJdnZ2dgu5Qh8BqtapqoTJhLUvJDRMKhSAYfKCKRCMwHo+V66mO1wKSbu33+0saDoeqi7MS1gKyCjed2wM3de7buv9v6SdXaLHY4hbQvwAAAABJRU5ErkJggg==;resizeWidth=0;allowArrows=0;expand=0;movable=0;resizable=0;rotatable=0;" parent="wv7daCviZKQoiw0kIBDT-349" vertex="1">
          <mxGeometry y="46.57000000000001" width="28" height="26" as="geometry" />
        </mxCell>
        <mxCell id="wv7daCviZKQoiw0kIBDT-341" value="" style="pointerEvents=1;verticalLabelPosition=bottom;shadow=0;dashed=0;align=center;html=1;verticalAlign=top;shape=mxgraph.electrical.waveforms.sine_wave;labelBackgroundColor=#ffffff;sketch=0;fontColor=#000000;fillColor=none;strokeWidth=3;resizeWidth=0;allowArrows=0;expand=0;movable=0;resizable=0;rotatable=0;" parent="wv7daCviZKQoiw0kIBDT-349" vertex="1">
          <mxGeometry x="5.239999999999995" width="19" height="17" as="geometry" />
        </mxCell>
        <mxCell id="wv7daCviZKQoiw0kIBDT-350" value="" style="html=1;shadow=0;dashed=0;align=center;verticalAlign=middle;shape=mxgraph.arrows2.arrow;dy=0.6;dx=40;notch=0;labelBackgroundColor=#ffffff;sketch=0;strokeWidth=1;fontColor=#000000;fillColor=#FF3333;strokeColor=#FF3333;resizeWidth=0;connectable=0;allowArrows=0;recursiveResize=0;expand=0;rotatable=0;" parent="1" vertex="1">
          <mxGeometry x="63" y="56.33" width="20" height="12.6" as="geometry" />
        </mxCell>
        <mxCell id="wv7daCviZKQoiw0kIBDT-354" value="Wave" style="text;html=1;strokeColor=none;fillColor=none;align=center;verticalAlign=middle;whiteSpace=wrap;rounded=0;shadow=0;labelBackgroundColor=#ffffff;sketch=0;fontColor=#000000;resizeWidth=0;connectable=0;allowArrows=0;recursiveResize=0;expand=0;editable=0;movable=0;resizable=0;rotatable=0;pointerEvents=0;" parent="1" vertex="1">
          <mxGeometry x="20" y="53.33" width="40" height="20" as="geometry" />
        </mxCell>
        <mxCell id="wv7daCviZKQoiw0kIBDT-377" value="Sync" style="text;html=1;strokeColor=none;fillColor=none;align=center;verticalAlign=middle;whiteSpace=wrap;rounded=0;shadow=0;labelBackgroundColor=#ffffff;sketch=0;fontColor=#000000;resizeWidth=0;allowArrows=0;expand=0;editable=0;movable=0;resizable=0;rotatable=0;cloneable=1;pointerEvents=0;" parent="1" vertex="1">
          <mxGeometry x="21.5" y="280" width="40" height="20" as="geometry" />
        </mxCell>
        <mxCell id="wv7daCviZKQoiw0kIBDT-378" value="" style="html=1;shadow=0;dashed=0;align=center;verticalAlign=middle;shape=mxgraph.arrows2.arrow;dy=0.6;dx=40;notch=0;labelBackgroundColor=#ffffff;sketch=0;strokeWidth=1;fontColor=#000000;fillColor=#FF3333;strokeColor=#FF3333;resizeWidth=0;recursiveResize=0;expand=0;editable=0;resizable=0;rotatable=0;cloneable=1;connectable=0;allowArrows=0;" parent="1" vertex="1">
          <mxGeometry x="61.5" y="284.51" width="20" height="12.6" as="geometry" />
        </mxCell>
        <mxCell id="wv7daCviZKQoiw0kIBDT-379" value="Seq" style="text;html=1;strokeColor=none;fillColor=none;align=center;verticalAlign=middle;whiteSpace=wrap;rounded=0;shadow=0;labelBackgroundColor=#ffffff;sketch=0;fontColor=#000000;resizeWidth=0;allowArrows=0;expand=0;editable=0;movable=0;resizable=0;rotatable=0;cloneable=1;pointerEvents=0;" parent="1" vertex="1">
          <mxGeometry x="84.5" y="280.81" width="40" height="20" as="geometry" />
        </mxCell>
        <mxCell id="wv7daCviZKQoiw0kIBDT-380" value="Free" style="text;html=1;strokeColor=none;fillColor=none;align=center;verticalAlign=middle;whiteSpace=wrap;rounded=0;shadow=0;labelBackgroundColor=#ffffff;sketch=0;fontColor=#000000;resizeWidth=0;allowArrows=0;expand=0;editable=0;movable=0;resizable=0;rotatable=0;cloneable=1;pointerEvents=0;" parent="1" vertex="1">
          <mxGeometry x="84.5" y="300.81" width="40" height="20" as="geometry" />
        </mxCell>
        <mxCell id="wv7daCviZKQoiw0kIBDT-387" value="" style="html=1;shadow=0;dashed=0;align=center;verticalAlign=middle;shape=mxgraph.arrows2.arrow;dy=0.6;dx=40;notch=0;labelBackgroundColor=#ffffff;sketch=0;strokeWidth=1;fontColor=#000000;fillColor=#FF3333;strokeColor=#FF3333;movable=1;connectable=0;allowArrows=0;recursiveResize=0;expand=0;editable=0;resizable=0;rotatable=0;" parent="1" vertex="1">
          <mxGeometry x="1060" y="724.15" width="20" height="12.6" as="geometry" />
        </mxCell>
        <mxCell id="wv7daCviZKQoiw0kIBDT-388" value="Gate" style="text;html=1;strokeColor=none;fillColor=none;align=center;verticalAlign=middle;whiteSpace=wrap;rounded=0;shadow=0;labelBackgroundColor=#ffffff;sketch=0;fontColor=#000000;movable=0;deletable=0;allowArrows=0;expand=0;editable=0;resizable=0;rotatable=0;pointerEvents=0;" parent="1" vertex="1">
          <mxGeometry x="1090" y="716.75" width="40" height="20" as="geometry" />
        </mxCell>
        <mxCell id="wv7daCviZKQoiw0kIBDT-389" value="Trig" style="text;html=1;strokeColor=none;fillColor=none;align=center;verticalAlign=middle;whiteSpace=wrap;rounded=0;shadow=0;labelBackgroundColor=#ffffff;sketch=0;fontColor=#000000;movable=0;deletable=0;allowArrows=0;expand=0;editable=0;resizable=0;rotatable=0;pointerEvents=0;" parent="1" vertex="1">
          <mxGeometry x="1090" y="741.55" width="40" height="20" as="geometry" />
        </mxCell>
        <mxCell id="wv7daCviZKQoiw0kIBDT-390" value="Once" style="text;html=1;strokeColor=none;fillColor=none;align=center;verticalAlign=middle;whiteSpace=wrap;rounded=0;shadow=0;labelBackgroundColor=#ffffff;sketch=0;fontColor=#000000;movable=0;deletable=0;allowArrows=0;expand=0;editable=0;resizable=0;rotatable=0;pointerEvents=0;" parent="1" vertex="1">
          <mxGeometry x="1090" y="797.76" width="40" height="20" as="geometry" />
        </mxCell>
        <mxCell id="wv7daCviZKQoiw0kIBDT-391" value="Loop" style="text;html=1;strokeColor=none;fillColor=none;align=center;verticalAlign=middle;whiteSpace=wrap;rounded=0;shadow=0;labelBackgroundColor=#ffffff;sketch=0;fontColor=#000000;movable=0;deletable=0;allowArrows=0;expand=0;editable=0;resizable=0;rotatable=0;pointerEvents=0;" parent="1" vertex="1">
          <mxGeometry x="1090" y="817.76" width="40" height="20" as="geometry" />
        </mxCell>
        <mxCell id="wv7daCviZKQoiw0kIBDT-393" value="" style="ellipse;whiteSpace=wrap;html=1;aspect=fixed;shadow=0;labelBackgroundColor=#ffffff;sketch=0;strokeWidth=2;fontColor=#000000;labelBorderColor=#000000;labelPosition=center;verticalLabelPosition=bottom;align=center;verticalAlign=top;fillColor=none;recursiveResize=0;expand=0;resizable=0;rotatable=0;deletable=0;pointerEvents=0;editable=1;movable=0;resizeWidth=0;cloneable=0;" parent="1" vertex="1">
          <mxGeometry x="920.6299999999999" y="126.67000000000002" width="53.33" height="53.33" as="geometry" />
        </mxCell>
        <mxCell id="wv7daCviZKQoiw0kIBDT-394" value="" style="ellipse;whiteSpace=wrap;html=1;aspect=fixed;shadow=0;labelBackgroundColor=#ffffff;sketch=0;strokeWidth=2;fontColor=#000000;labelBorderColor=#000000;labelPosition=center;verticalLabelPosition=bottom;align=center;verticalAlign=top;fillColor=none;recursiveResize=0;expand=0;resizable=0;rotatable=0;deletable=0;pointerEvents=0;editable=1;movable=0;resizeWidth=0;cloneable=0;" parent="1" vertex="1">
          <mxGeometry x="851.3399999999999" y="126.67000000000002" width="53.33" height="53.33" as="geometry" />
        </mxCell>
        <mxCell id="wv7daCviZKQoiw0kIBDT-395" value="&lt;div&gt;&amp;nbsp;Press /&amp;nbsp;&lt;/div&gt;&lt;div&gt;Mod 2&lt;/div&gt;" style="ellipse;whiteSpace=wrap;html=1;aspect=fixed;shadow=0;labelBackgroundColor=#000000;sketch=0;strokeWidth=2;labelBorderColor=#000000;labelPosition=center;verticalLabelPosition=bottom;align=center;verticalAlign=top;recursiveResize=0;expand=0;resizable=0;rotatable=0;deletable=0;pointerEvents=0;fillColor=none;fontColor=#FFFFFF;editable=1;movable=0;resizeWidth=0;cloneable=0;" parent="1" vertex="1">
          <mxGeometry x="1078" y="533.33" width="53.33" height="53.33" as="geometry" />
        </mxCell>
        <mxCell id="wv7daCviZKQoiw0kIBDT-397" value="" style="ellipse;whiteSpace=wrap;html=1;aspect=fixed;shadow=0;labelBackgroundColor=#ffffff;sketch=0;strokeWidth=2;fontColor=#000000;labelBorderColor=#000000;labelPosition=center;verticalLabelPosition=bottom;align=center;verticalAlign=top;fillColor=none;recursiveResize=0;expand=0;resizable=0;rotatable=0;deletable=0;pointerEvents=0;editable=1;movable=0;resizeWidth=0;cloneable=0;" parent="1" vertex="1">
          <mxGeometry x="773.9399999999999" y="126.67000000000002" width="53.33" height="53.33" as="geometry" />
        </mxCell>
        <mxCell id="wv7daCviZKQoiw0kIBDT-398" value="Sync" style="ellipse;whiteSpace=wrap;html=1;aspect=fixed;shadow=0;labelBackgroundColor=#ffffff;sketch=0;strokeWidth=2;fontColor=#000000;labelBorderColor=#000000;labelPosition=center;verticalLabelPosition=bottom;align=center;verticalAlign=top;fillColor=none;recursiveResize=0;expand=0;resizable=0;rotatable=0;deletable=0;pointerEvents=0;editable=1;movable=0;resizeWidth=0;cloneable=0;" parent="1" vertex="1">
          <mxGeometry x="544.3199999999999" y="126.67000000000002" width="53.33" height="53.33" as="geometry" />
        </mxCell>
        <mxCell id="wv7daCviZKQoiw0kIBDT-399" value="FM" style="ellipse;whiteSpace=wrap;html=1;aspect=fixed;shadow=0;labelBackgroundColor=#ffffff;sketch=0;strokeWidth=2;fontColor=#000000;labelBorderColor=#000000;labelPosition=center;verticalLabelPosition=bottom;align=center;verticalAlign=top;fillColor=none;recursiveResize=0;expand=0;resizable=0;rotatable=0;deletable=0;pointerEvents=0;editable=1;movable=0;resizeWidth=0;cloneable=0;" parent="1" vertex="1">
          <mxGeometry x="624.39" y="46.670000000000016" width="53.33" height="53.33" as="geometry" />
        </mxCell>
        <mxCell id="wv7daCviZKQoiw0kIBDT-400" value="Pitch" style="ellipse;whiteSpace=wrap;html=1;aspect=fixed;shadow=0;labelBackgroundColor=#ffffff;sketch=0;strokeWidth=2;fontColor=#000000;labelBorderColor=#000000;labelPosition=center;verticalLabelPosition=bottom;align=center;verticalAlign=top;fillColor=none;recursiveResize=0;expand=0;resizable=0;rotatable=0;deletable=0;pointerEvents=0;editable=1;movable=0;resizeWidth=0;cloneable=0;" parent="1" vertex="1">
          <mxGeometry x="544.3199999999999" y="46.66999999999999" width="53.33" height="53.33" as="geometry" />
        </mxCell>
        <mxCell id="wv7daCviZKQoiw0kIBDT-401" value="FM" style="ellipse;whiteSpace=wrap;html=1;aspect=fixed;shadow=0;labelBackgroundColor=#ffffff;sketch=0;strokeWidth=2;fontColor=#000000;labelBorderColor=#000000;labelPosition=center;verticalLabelPosition=bottom;align=center;verticalAlign=top;recursiveResize=0;expand=0;resizable=0;rotatable=0;deletable=0;pointerEvents=0;editable=1;movable=0;resizeWidth=0;cloneable=0;fillColor=#FF3333;" parent="1" vertex="1">
          <mxGeometry x="544.3199999999999" y="236.96" width="53.33" height="53.33" as="geometry" />
        </mxCell>
        <mxCell id="wv7daCviZKQoiw0kIBDT-402" value="RM" style="ellipse;whiteSpace=wrap;html=1;aspect=fixed;shadow=0;labelBackgroundColor=#ffffff;sketch=0;strokeWidth=2;fontColor=#000000;labelBorderColor=#000000;labelPosition=center;verticalLabelPosition=bottom;align=center;verticalAlign=top;fillColor=none;recursiveResize=0;expand=0;resizable=0;rotatable=0;deletable=0;pointerEvents=0;editable=1;movable=0;resizeWidth=0;cloneable=0;" parent="1" vertex="1">
          <mxGeometry x="617.78" y="236.96" width="53.33" height="53.33" as="geometry" />
        </mxCell>
        <mxCell id="wv7daCviZKQoiw0kIBDT-403" value="Ext" style="ellipse;whiteSpace=wrap;html=1;aspect=fixed;shadow=0;labelBackgroundColor=#ffffff;sketch=0;strokeWidth=2;fontColor=#000000;labelBorderColor=#000000;labelPosition=center;verticalLabelPosition=bottom;align=center;verticalAlign=top;fillColor=none;recursiveResize=0;expand=0;resizable=0;rotatable=0;deletable=0;pointerEvents=0;editable=1;movable=0;resizeWidth=0;cloneable=0;" parent="1" vertex="1">
          <mxGeometry x="1077" y="127" width="53.33" height="53.33" as="geometry" />
        </mxCell>
        <mxCell id="wv7daCviZKQoiw0kIBDT-404" value="Cutoff" style="ellipse;whiteSpace=wrap;html=1;aspect=fixed;shadow=0;labelBackgroundColor=#ffffff;sketch=0;strokeWidth=2;fontColor=#000000;labelBorderColor=#000000;labelPosition=center;verticalLabelPosition=bottom;align=center;verticalAlign=top;fillColor=none;recursiveResize=0;expand=0;resizable=0;rotatable=0;deletable=0;pointerEvents=0;editable=1;movable=0;resizeWidth=0;cloneable=0;" parent="1" vertex="1">
          <mxGeometry x="693.52" y="236.95999999999998" width="53.33" height="53.33" as="geometry" />
        </mxCell>
        <mxCell id="wv7daCviZKQoiw0kIBDT-405" value="Master" style="ellipse;whiteSpace=wrap;html=1;aspect=fixed;shadow=0;labelBackgroundColor=#ffffff;sketch=0;strokeWidth=2;fontColor=#000000;labelBorderColor=#000000;labelPosition=center;verticalLabelPosition=bottom;align=center;verticalAlign=top;fillColor=none;recursiveResize=0;expand=0;resizable=0;rotatable=0;deletable=0;pointerEvents=0;editable=1;movable=0;resizeWidth=0;cloneable=0;" parent="1" vertex="1">
          <mxGeometry x="1078" y="49" width="53.33" height="53.33" as="geometry" />
        </mxCell>
        <mxCell id="wv7daCviZKQoiw0kIBDT-406" value="Lin FM" style="ellipse;whiteSpace=wrap;html=1;aspect=fixed;shadow=0;labelBackgroundColor=#ffffff;sketch=0;strokeWidth=2;fontColor=#000000;labelBorderColor=#000000;labelPosition=center;verticalLabelPosition=bottom;align=center;verticalAlign=top;recursiveResize=0;expand=0;resizable=0;rotatable=0;deletable=0;pointerEvents=0;editable=1;movable=0;resizeWidth=0;cloneable=0;fillColor=#000099;" parent="1" vertex="1">
          <mxGeometry x="621.72" y="126.67000000000002" width="53.33" height="53.33" as="geometry" />
        </mxCell>
        <mxCell id="wv7daCviZKQoiw0kIBDT-407" value="PWM" style="ellipse;whiteSpace=wrap;html=1;aspect=fixed;shadow=0;labelBackgroundColor=#ffffff;sketch=0;strokeWidth=2;fontColor=#000000;labelBorderColor=#000000;labelPosition=center;verticalLabelPosition=bottom;align=center;verticalAlign=top;fillColor=none;recursiveResize=0;expand=0;resizable=0;rotatable=0;deletable=0;pointerEvents=0;editable=1;movable=0;resizeWidth=0;cloneable=0;" parent="1" vertex="1">
          <mxGeometry x="773.9399999999999" y="46.670000000000016" width="53.33" height="53.33" as="geometry" />
        </mxCell>
        <mxCell id="wv7daCviZKQoiw0kIBDT-408" value="Ultrasaw" style="ellipse;whiteSpace=wrap;html=1;aspect=fixed;shadow=0;labelBackgroundColor=#ffffff;sketch=0;strokeWidth=2;fontColor=#000000;labelBorderColor=#000000;labelPosition=center;verticalLabelPosition=bottom;align=center;verticalAlign=top;fillColor=none;recursiveResize=0;expand=0;resizable=0;rotatable=0;deletable=0;pointerEvents=0;editable=1;movable=0;resizeWidth=0;cloneable=0;" parent="1" vertex="1">
          <mxGeometry x="697.8299999999999" y="46.670000000000016" width="53.33" height="53.33" as="geometry" />
        </mxCell>
        <mxCell id="wv7daCviZKQoiw0kIBDT-409" value="AM" style="ellipse;whiteSpace=wrap;html=1;aspect=fixed;shadow=0;labelBackgroundColor=#ffffff;sketch=0;strokeWidth=2;fontColor=#000000;labelBorderColor=#000000;labelPosition=center;verticalLabelPosition=bottom;align=center;verticalAlign=top;fillColor=none;recursiveResize=0;expand=0;resizable=0;rotatable=0;deletable=0;pointerEvents=0;editable=1;movable=0;resizeWidth=0;cloneable=0;" parent="1" vertex="1">
          <mxGeometry x="775.23" y="236.95999999999998" width="53.33" height="53.33" as="geometry" />
        </mxCell>
        <mxCell id="wv7daCviZKQoiw0kIBDT-410" value="&amp;nbsp;Amp&amp;nbsp;" style="ellipse;whiteSpace=wrap;html=1;aspect=fixed;shadow=0;labelBackgroundColor=#ffffff;sketch=0;strokeWidth=2;fontColor=#000000;labelBorderColor=#000000;labelPosition=center;verticalLabelPosition=bottom;align=center;verticalAlign=top;fillColor=none;recursiveResize=0;expand=0;resizable=0;rotatable=0;deletable=0;pointerEvents=0;editable=1;movable=0;resizeWidth=0;cloneable=0;" parent="1" vertex="1">
          <mxGeometry x="848.7499999999999" y="236.95999999999998" width="53.33" height="53.33" as="geometry" />
        </mxCell>
        <mxCell id="wv7daCviZKQoiw0kIBDT-411" value="Trig" style="ellipse;whiteSpace=wrap;html=1;aspect=fixed;shadow=0;labelBackgroundColor=#ffffff;sketch=0;strokeWidth=2;fontColor=#000000;labelBorderColor=#000000;labelPosition=center;verticalLabelPosition=bottom;align=center;verticalAlign=top;fillColor=none;recursiveResize=0;expand=0;resizable=0;rotatable=0;deletable=0;pointerEvents=0;editable=1;movable=0;resizeWidth=0;cloneable=0;" parent="1" vertex="1">
          <mxGeometry x="544.3199999999999" y="344.52000000000004" width="53.33" height="53.33" as="geometry" />
        </mxCell>
        <mxCell id="wv7daCviZKQoiw0kIBDT-412" value="In" style="ellipse;whiteSpace=wrap;html=1;aspect=fixed;shadow=0;labelBackgroundColor=#ffffff;sketch=0;strokeWidth=2;fontColor=#000000;labelBorderColor=#000000;labelPosition=center;verticalLabelPosition=bottom;align=center;verticalAlign=top;fillColor=none;recursiveResize=0;expand=0;resizable=0;rotatable=0;deletable=0;pointerEvents=0;editable=1;movable=0;resizeWidth=0;cloneable=0;" parent="1" vertex="1">
          <mxGeometry x="999" y="236.96" width="53.33" height="53.33" as="geometry" />
        </mxCell>
        <mxCell id="wv7daCviZKQoiw0kIBDT-413" value="In 1" style="ellipse;whiteSpace=wrap;html=1;aspect=fixed;shadow=0;labelBackgroundColor=#ffffff;sketch=0;strokeWidth=2;fontColor=#000000;labelBorderColor=#000000;labelPosition=center;verticalLabelPosition=bottom;align=center;verticalAlign=top;recursiveResize=0;expand=0;resizable=0;rotatable=0;deletable=0;pointerEvents=0;editable=1;movable=0;resizeWidth=0;cloneable=0;fillColor=#66FFFF;" parent="1" vertex="1">
          <mxGeometry x="544.3199999999999" y="451.11" width="53.33" height="53.33" as="geometry" />
        </mxCell>
        <mxCell id="wv7daCviZKQoiw0kIBDT-414" value="Attack" style="ellipse;whiteSpace=wrap;html=1;aspect=fixed;shadow=0;labelBackgroundColor=#ffffff;sketch=0;strokeWidth=2;fontColor=#000000;labelBorderColor=#000000;labelPosition=center;verticalLabelPosition=bottom;align=center;verticalAlign=top;fillColor=none;recursiveResize=0;expand=0;resizable=0;rotatable=0;deletable=0;pointerEvents=0;editable=1;movable=0;resizeWidth=0;cloneable=0;" parent="1" vertex="1">
          <mxGeometry x="773.52" y="344.52" width="53.33" height="53.33" as="geometry" />
        </mxCell>
        <mxCell id="wv7daCviZKQoiw0kIBDT-415" value="" style="ellipse;whiteSpace=wrap;html=1;aspect=fixed;shadow=0;labelBackgroundColor=#ffffff;sketch=0;strokeWidth=2;fontColor=#000000;labelBorderColor=#000000;labelPosition=center;verticalLabelPosition=bottom;align=center;verticalAlign=top;fillColor=none;recursiveResize=0;expand=0;resizable=0;rotatable=0;deletable=0;pointerEvents=0;editable=1;movable=0;resizeWidth=0;cloneable=0;" parent="1" vertex="1">
          <mxGeometry x="697.83" y="126.67000000000002" width="53.33" height="53.33" as="geometry" />
        </mxCell>
        <mxCell id="wv7daCviZKQoiw0kIBDT-416" value="Metal In" style="ellipse;whiteSpace=wrap;html=1;aspect=fixed;shadow=0;labelBackgroundColor=#ffffff;sketch=0;strokeWidth=2;fontColor=#000000;labelBorderColor=#000000;labelPosition=center;verticalLabelPosition=bottom;align=center;verticalAlign=top;fillColor=none;recursiveResize=0;expand=0;resizable=0;rotatable=0;deletable=0;pointerEvents=0;editable=1;movable=0;resizeWidth=0;cloneable=0;" parent="1" vertex="1">
          <mxGeometry x="851.3399999999999" y="46.66999999999996" width="53.33" height="53.33" as="geometry" />
        </mxCell>
        <mxCell id="wv7daCviZKQoiw0kIBDT-419" value="Clock" style="ellipse;whiteSpace=wrap;html=1;aspect=fixed;shadow=0;labelBackgroundColor=#ffffff;sketch=0;strokeWidth=2;fontColor=#000000;labelBorderColor=#000000;labelPosition=center;verticalLabelPosition=bottom;align=center;verticalAlign=top;fillColor=none;recursiveResize=0;expand=0;resizable=0;rotatable=0;deletable=0;pointerEvents=0;editable=1;movable=0;resizeWidth=0;cloneable=0;" parent="1" vertex="1">
          <mxGeometry x="850.05" y="451.11" width="53.33" height="53.33" as="geometry" />
        </mxCell>
        <mxCell id="wv7daCviZKQoiw0kIBDT-420" value="Reset" style="ellipse;whiteSpace=wrap;html=1;aspect=fixed;shadow=0;labelBackgroundColor=#ffffff;sketch=0;strokeWidth=2;fontColor=#000000;labelBorderColor=#000000;labelPosition=center;verticalLabelPosition=bottom;align=center;verticalAlign=top;fillColor=none;recursiveResize=0;expand=0;resizable=0;rotatable=0;deletable=0;pointerEvents=0;editable=1;movable=0;resizeWidth=0;cloneable=0;" parent="1" vertex="1">
          <mxGeometry x="920.63" y="451.11" width="53.33" height="53.33" as="geometry" />
        </mxCell>
        <mxCell id="wv7daCviZKQoiw0kIBDT-421" value="CV" style="ellipse;whiteSpace=wrap;html=1;aspect=fixed;shadow=0;labelBackgroundColor=#ffffff;sketch=0;strokeWidth=2;fontColor=#000000;labelBorderColor=#000000;labelPosition=center;verticalLabelPosition=bottom;align=center;verticalAlign=top;recursiveResize=0;expand=0;resizable=0;rotatable=0;deletable=0;pointerEvents=0;editable=1;movable=0;resizeWidth=0;cloneable=0;fillColor=#FF3333;" parent="1" vertex="1">
          <mxGeometry x="544.3199999999999" y="533.33" width="53.33" height="53.33" as="geometry" />
        </mxCell>
        <mxCell id="wv7daCviZKQoiw0kIBDT-422" value="In 2" style="ellipse;whiteSpace=wrap;html=1;aspect=fixed;shadow=0;labelBackgroundColor=#ffffff;sketch=0;strokeWidth=2;fontColor=#000000;labelBorderColor=#000000;labelPosition=center;verticalLabelPosition=bottom;align=center;verticalAlign=top;fillColor=none;recursiveResize=0;expand=0;resizable=0;rotatable=0;deletable=0;pointerEvents=0;editable=1;movable=0;resizeWidth=0;cloneable=0;" parent="1" vertex="1">
          <mxGeometry x="617.78" y="451.11" width="53.33" height="53.33" as="geometry" />
        </mxCell>
        <mxCell id="wv7daCviZKQoiw0kIBDT-423" value="Decay" style="ellipse;whiteSpace=wrap;html=1;aspect=fixed;shadow=0;labelBackgroundColor=#ffffff;sketch=0;strokeWidth=2;fontColor=#000000;labelBorderColor=#000000;labelPosition=center;verticalLabelPosition=bottom;align=center;verticalAlign=top;fillColor=none;recursiveResize=0;expand=0;resizable=0;rotatable=0;deletable=0;pointerEvents=0;editable=1;movable=0;resizeWidth=0;cloneable=0;" parent="1" vertex="1">
          <mxGeometry x="850.05" y="344.52" width="53.33" height="53.33" as="geometry" />
        </mxCell>
        <mxCell id="wv7daCviZKQoiw0kIBDT-424" value="MetalMod" style="ellipse;whiteSpace=wrap;html=1;aspect=fixed;shadow=0;labelBackgroundColor=#ffffff;sketch=0;strokeWidth=2;fontColor=#000000;labelBorderColor=#000000;labelPosition=center;verticalLabelPosition=bottom;align=center;verticalAlign=top;fillColor=none;recursiveResize=0;expand=0;resizable=0;rotatable=0;deletable=0;pointerEvents=0;editable=1;movable=0;resizeWidth=0;cloneable=0;" parent="1" vertex="1">
          <mxGeometry x="920.63" y="46.66999999999996" width="53.33" height="53.33" as="geometry" />
        </mxCell>
        <mxCell id="wv7daCviZKQoiw0kIBDT-441" value="&amp;nbsp;Gate&amp;nbsp;" style="ellipse;whiteSpace=wrap;html=1;aspect=fixed;shadow=0;labelBackgroundColor=#000000;sketch=0;strokeWidth=2;labelBorderColor=#000000;labelPosition=center;verticalLabelPosition=bottom;align=center;verticalAlign=top;recursiveResize=0;expand=0;resizable=0;rotatable=0;deletable=0;pointerEvents=0;fillColor=none;fontColor=#FFFFFF;editable=1;movable=0;resizeWidth=0;cloneable=0;" parent="1" vertex="1">
          <mxGeometry x="1076.67" y="451.11" width="53.33" height="53.33" as="geometry" />
        </mxCell>
        <mxCell id="wv7daCviZKQoiw0kIBDT-442" value="&amp;nbsp;KBD&amp;nbsp;" style="ellipse;whiteSpace=wrap;html=1;aspect=fixed;shadow=0;labelBackgroundColor=#000000;sketch=0;strokeWidth=2;labelBorderColor=#000000;labelPosition=center;verticalLabelPosition=bottom;align=center;verticalAlign=top;recursiveResize=0;expand=0;resizable=0;rotatable=0;deletable=0;pointerEvents=0;fillColor=none;fontColor=#FFFFFF;editable=1;movable=0;resizeWidth=0;cloneable=0;" parent="1" vertex="1">
          <mxGeometry x="1000.71" y="451.11" width="53.33" height="53.33" as="geometry" />
        </mxCell>
        <mxCell id="wv7daCviZKQoiw0kIBDT-443" value="&amp;nbsp;Run&amp;nbsp;" style="ellipse;whiteSpace=wrap;html=1;aspect=fixed;shadow=0;labelBackgroundColor=#000000;sketch=0;strokeWidth=2;labelBorderColor=#000000;labelPosition=center;verticalLabelPosition=bottom;align=center;verticalAlign=top;recursiveResize=0;expand=0;resizable=0;rotatable=0;deletable=0;pointerEvents=0;fillColor=none;fontColor=#FFFFFF;editable=1;movable=0;resizeWidth=0;cloneable=0;" parent="1" vertex="1">
          <mxGeometry x="920.63" y="533.33" width="53.33" height="53.33" as="geometry" />
        </mxCell>
        <mxCell id="wv7daCviZKQoiw0kIBDT-444" value="&amp;nbsp;Sync&amp;nbsp;" style="ellipse;whiteSpace=wrap;html=1;aspect=fixed;shadow=0;labelBackgroundColor=#000000;sketch=0;strokeWidth=2;labelBorderColor=#000000;labelPosition=center;verticalLabelPosition=bottom;align=center;verticalAlign=top;recursiveResize=0;expand=0;resizable=0;rotatable=0;deletable=0;pointerEvents=0;fillColor=none;fontColor=#FFFFFF;editable=1;movable=0;resizeWidth=0;cloneable=0;" parent="1" vertex="1">
          <mxGeometry x="848.75" y="533.33" width="53.33" height="53.33" as="geometry" />
        </mxCell>
        <mxCell id="wv7daCviZKQoiw0kIBDT-445" value="&lt;div&gt;Out 2&lt;/div&gt;&lt;div&gt;&amp;nbsp;➙Amp&amp;nbsp;&lt;/div&gt;" style="ellipse;whiteSpace=wrap;html=1;aspect=fixed;shadow=0;labelBackgroundColor=#000000;sketch=0;strokeWidth=2;labelBorderColor=#000000;labelPosition=center;verticalLabelPosition=bottom;align=center;verticalAlign=top;recursiveResize=0;expand=0;resizable=0;rotatable=0;deletable=0;pointerEvents=0;fillColor=none;fontColor=#FFFFFF;editable=1;movable=0;resizeWidth=0;cloneable=0;" parent="1" vertex="1">
          <mxGeometry x="773.9399999999999" y="533.33" width="53.33" height="53.33" as="geometry" />
        </mxCell>
        <mxCell id="wv7daCviZKQoiw0kIBDT-446" value="&lt;div&gt;Out1&lt;/div&gt;&lt;div&gt;&amp;nbsp;➙Cutoff&amp;nbsp;&lt;/div&gt;" style="ellipse;whiteSpace=wrap;html=1;aspect=fixed;shadow=0;labelBackgroundColor=#000000;sketch=0;strokeWidth=2;labelBorderColor=#000000;labelPosition=center;verticalLabelPosition=bottom;align=center;verticalAlign=top;recursiveResize=0;expand=0;resizable=0;rotatable=0;deletable=0;pointerEvents=0;fontColor=#FFFFFF;editable=1;movable=0;resizeWidth=0;cloneable=0;fillColor=#000099;" parent="1" vertex="1">
          <mxGeometry x="696.54" y="533.33" width="53.33" height="53.33" as="geometry" />
        </mxCell>
        <mxCell id="wv7daCviZKQoiw0kIBDT-447" value="&amp;nbsp;Out&amp;nbsp;" style="ellipse;whiteSpace=wrap;html=1;aspect=fixed;shadow=0;labelBackgroundColor=#000000;sketch=0;strokeWidth=2;labelBorderColor=#000000;labelPosition=center;verticalLabelPosition=bottom;align=center;verticalAlign=top;recursiveResize=0;expand=0;resizable=0;rotatable=0;deletable=0;pointerEvents=0;fontColor=#FFFFFF;editable=1;movable=0;resizeWidth=0;cloneable=0;fillColor=#006666;" parent="1" vertex="1">
          <mxGeometry x="617.78" y="533.33" width="53.33" height="53.33" as="geometry" />
        </mxCell>
        <mxCell id="wv7daCviZKQoiw0kIBDT-448" value="&amp;nbsp;Out 2&amp;nbsp;" style="ellipse;whiteSpace=wrap;html=1;aspect=fixed;shadow=0;labelBackgroundColor=#000000;sketch=0;strokeWidth=2;labelBorderColor=#000000;labelPosition=center;verticalLabelPosition=bottom;align=center;verticalAlign=top;recursiveResize=0;expand=0;resizable=0;rotatable=0;deletable=0;pointerEvents=0;fillColor=none;fontColor=#FFFFFF;editable=1;movable=0;resizeWidth=0;cloneable=0;" parent="1" vertex="1">
          <mxGeometry x="1076.67" y="344.52" width="53.33" height="53.33" as="geometry" />
        </mxCell>
        <mxCell id="wv7daCviZKQoiw0kIBDT-449" value="&amp;nbsp;Out&amp;nbsp;" style="ellipse;whiteSpace=wrap;html=1;aspect=fixed;shadow=0;labelBackgroundColor=#000000;sketch=0;strokeWidth=2;labelBorderColor=#000000;labelPosition=center;verticalLabelPosition=bottom;align=center;verticalAlign=top;recursiveResize=0;expand=0;resizable=0;rotatable=0;deletable=0;pointerEvents=0;fillColor=none;fontColor=#FFFFFF;editable=1;movable=0;resizeWidth=0;cloneable=0;" parent="1" vertex="1">
          <mxGeometry x="1000.71" y="344.52000000000004" width="53.33" height="53.33" as="geometry" />
        </mxCell>
        <mxCell id="wv7daCviZKQoiw0kIBDT-450" value="&amp;nbsp;Out&amp;nbsp;" style="ellipse;whiteSpace=wrap;html=1;aspect=fixed;shadow=0;labelBackgroundColor=#000000;sketch=0;strokeWidth=2;labelBorderColor=#000000;labelPosition=center;verticalLabelPosition=bottom;align=center;verticalAlign=top;recursiveResize=0;expand=0;resizable=0;rotatable=0;deletable=0;pointerEvents=0;fontColor=#FFFFFF;editable=1;movable=0;resizeWidth=0;cloneable=0;fillColor=#FF3333;" parent="1" vertex="1">
          <mxGeometry x="921.15" y="344.52" width="53.33" height="53.33" as="geometry" />
        </mxCell>
        <mxCell id="wv7daCviZKQoiw0kIBDT-451" value="&amp;nbsp;Out&amp;nbsp;" style="ellipse;whiteSpace=wrap;html=1;aspect=fixed;shadow=0;labelBackgroundColor=#000000;sketch=0;strokeWidth=2;labelBorderColor=#000000;labelPosition=center;verticalLabelPosition=bottom;align=center;verticalAlign=top;recursiveResize=0;expand=0;resizable=0;rotatable=0;deletable=0;pointerEvents=0;fillColor=none;fontColor=#FFFFFF;editable=1;movable=0;resizeWidth=0;cloneable=0;" parent="1" vertex="1">
          <mxGeometry x="617.78" y="344.52" width="53.33" height="53.33" as="geometry" />
        </mxCell>
        <mxCell id="wv7daCviZKQoiw0kIBDT-452" value="&amp;nbsp;Out&amp;nbsp;" style="ellipse;whiteSpace=wrap;html=1;aspect=fixed;shadow=0;labelBackgroundColor=#000000;sketch=0;strokeWidth=2;labelBorderColor=#000000;labelPosition=center;verticalLabelPosition=bottom;align=center;verticalAlign=top;recursiveResize=0;expand=0;resizable=0;rotatable=0;deletable=0;pointerEvents=0;fillColor=none;fontColor=#FFFFFF;editable=1;movable=0;resizeWidth=0;cloneable=0;" parent="1" vertex="1">
          <mxGeometry x="1076.67" y="236.95999999999998" width="53.33" height="53.33" as="geometry" />
        </mxCell>
        <mxCell id="wv7daCviZKQoiw0kIBDT-453" value="&amp;nbsp;Out&amp;nbsp;" style="ellipse;whiteSpace=wrap;html=1;aspect=fixed;shadow=0;labelBackgroundColor=#000000;sketch=0;strokeWidth=2;labelBorderColor=#000000;labelPosition=center;verticalLabelPosition=bottom;align=center;verticalAlign=top;recursiveResize=0;expand=0;resizable=0;rotatable=0;deletable=0;pointerEvents=0;fillColor=none;fontColor=#FFFFFF;editable=1;movable=0;resizeWidth=0;cloneable=0;" parent="1" vertex="1">
          <mxGeometry x="920.6299999999999" y="236.95999999999998" width="53.33" height="53.33" as="geometry" />
        </mxCell>
        <mxCell id="wv7daCviZKQoiw0kIBDT-454" value="&amp;nbsp;Out&amp;nbsp;" style="ellipse;whiteSpace=wrap;html=1;aspect=fixed;shadow=0;labelBackgroundColor=#000000;sketch=0;strokeWidth=2;labelBorderColor=#000000;labelPosition=center;verticalLabelPosition=bottom;align=center;verticalAlign=top;recursiveResize=0;expand=0;resizable=0;rotatable=0;deletable=0;pointerEvents=0;fontColor=#FFFFFF;editable=1;movable=0;resizeWidth=0;cloneable=0;fillColor=#66FFFF;" parent="1" vertex="1">
          <mxGeometry x="999" y="126" width="53.33" height="53.33" as="geometry" />
        </mxCell>
        <mxCell id="wv7daCviZKQoiw0kIBDT-455" value="Trig" style="ellipse;whiteSpace=wrap;html=1;aspect=fixed;shadow=0;labelBackgroundColor=#ffffff;sketch=0;strokeWidth=2;fontColor=#000000;labelBorderColor=#000000;labelPosition=center;verticalLabelPosition=bottom;align=center;verticalAlign=top;fillColor=none;recursiveResize=0;expand=0;resizable=0;rotatable=0;deletable=0;pointerEvents=0;editable=1;movable=0;resizeWidth=0;cloneable=0;" parent="1" vertex="1">
          <mxGeometry x="694" y="345" width="53.33" height="53.33" as="geometry" />
        </mxCell>
        <mxCell id="wv7daCviZKQoiw0kIBDT-456" value="In 1" style="ellipse;whiteSpace=wrap;html=1;aspect=fixed;shadow=0;labelBackgroundColor=#ffffff;sketch=0;strokeWidth=2;fontColor=#000000;labelBorderColor=#000000;labelPosition=center;verticalLabelPosition=bottom;align=center;verticalAlign=top;recursiveResize=0;expand=0;resizable=0;rotatable=0;deletable=0;pointerEvents=0;editable=1;movable=0;resizeWidth=0;cloneable=0;fillColor=#006666;" parent="1" vertex="1">
          <mxGeometry x="696.54" y="451.11" width="53.33" height="53.33" as="geometry" />
        </mxCell>
        <mxCell id="wv7daCviZKQoiw0kIBDT-457" value="In 2" style="ellipse;whiteSpace=wrap;html=1;aspect=fixed;shadow=0;labelBackgroundColor=#ffffff;sketch=0;strokeWidth=2;fontColor=#000000;labelBorderColor=#000000;labelPosition=center;verticalLabelPosition=bottom;align=center;verticalAlign=top;fillColor=none;recursiveResize=0;expand=0;resizable=0;rotatable=0;deletable=0;pointerEvents=0;editable=1;movable=0;resizeWidth=0;cloneable=0;" parent="1" vertex="1">
          <mxGeometry x="773.9399999999999" y="451.11" width="53.33" height="53.33" as="geometry" />
        </mxCell>
        <mxCell id="wv7daCviZKQoiw0kIBDT-459" value="&lt;div&gt;&amp;nbsp;Velo /&amp;nbsp;&lt;/div&gt;&lt;div&gt;Mod1&lt;/div&gt;" style="ellipse;whiteSpace=wrap;html=1;aspect=fixed;shadow=0;labelBackgroundColor=#000000;sketch=0;strokeWidth=2;labelBorderColor=#000000;labelPosition=center;verticalLabelPosition=bottom;align=center;verticalAlign=top;recursiveResize=0;expand=0;resizable=0;rotatable=0;deletable=0;pointerEvents=0;fillColor=none;fontColor=#FFFFFF;editable=1;movable=0;resizeWidth=0;cloneable=0;" parent="1" vertex="1">
          <mxGeometry x="1000.7099999999999" y="533.33" width="53.33" height="53.33" as="geometry" />
        </mxCell>
        <mxCell id="wv7daCviZKQoiw0kIBDT-464" value="" style="verticalLabelPosition=bottom;verticalAlign=top;html=1;shape=mxgraph.basic.donut;dx=10;strokeColor=none;fontSize=10;align=center;fillOpacity=20;shadow=0;labelBackgroundColor=#000000;sketch=0;fillColor=#000000;expand=0;dropTarget=0;resizable=0;movable=1;rotatable=0;deletable=0;resizeWidth=0;recursiveResize=0;allowArrows=0;connectable=0;" parent="1" vertex="1">
          <mxGeometry x="20.5" y="160" width="105" height="105" as="geometry" />
        </mxCell>
        <mxCell id="wv7daCviZKQoiw0kIBDT-465" value="&lt;font color=&quot;#000000&quot;&gt;Rate&lt;/font&gt;" style="verticalLabelPosition=middle;verticalAlign=middle;html=1;shape=mxgraph.basic.partConcEllipse;startAngle=0.8435835209054994;endAngle=0.9262081911747834;arcWidth=0.17;strokeColor=none;fillColor=#10739E;fontSize=22;fontColor=#10739E;align=center;fontStyle=1;resizeWidth=0;connectable=0;allowArrows=0;recursiveResize=0;expand=0;editable=0;movable=0;cloneable=0;deletable=0;resizable=0;" parent="wv7daCviZKQoiw0kIBDT-464" vertex="1">
          <mxGeometry width="105" height="105" as="geometry" />
        </mxCell>
        <mxCell id="wv7daCviZKQoiw0kIBDT-482" value="" style="fillColor=none;verticalAlign=top;fontStyle=0;shadow=0;imageAspect=0;recursiveResize=0;part=1;resizeWidth=0;editable=0;movable=0;resizable=0;rotatable=0;" parent="1" vertex="1">
          <mxGeometry x="10" y="340" width="130" height="310" as="geometry" />
        </mxCell>
        <mxCell id="wv7daCviZKQoiw0kIBDT-483" value="&lt;font color=&quot;#ffffff&quot;&gt;LFO 2&lt;/font&gt;" style="rounded=0;whiteSpace=wrap;html=1;shadow=0;strokeColor=#000000;fontColor=#000000;fillColor=#000000;imageAspect=0;allowArrows=0;connectable=0;recursiveResize=0;expand=0;part=1;resizable=0;resizeWidth=0;editable=0;movable=0;rotatable=0;" parent="1" vertex="1">
          <mxGeometry x="40" y="340" width="50" height="17.78" as="geometry" />
        </mxCell>
        <mxCell id="wv7daCviZKQoiw0kIBDT-484" value="" style="group;resizeWidth=0;allowArrows=0;expand=0;editable=0;movable=0;resizable=0;rotatable=0;" parent="1" vertex="1" connectable="0">
          <mxGeometry x="83" y="376.33" width="28" height="88.50000000000004" as="geometry" />
        </mxCell>
        <mxCell id="wv7daCviZKQoiw0kIBDT-485" value="" style="shape=image;verticalLabelPosition=bottom;labelBackgroundColor=#ffffff;verticalAlign=top;aspect=fixed;imageAspect=0;image=data:image/png,iVBORw0KGgoAAAANSUhEUgAAACQAAAAbCAYAAAAULC3gAAABuklEQVRYCe2Wy26CQBSGfcVqaqsPULQulWp3PoPKsupzKMTERAhtcGOoO9hUXbnVGC9/c7AQU+hwcWxcOAkhmcuZj2/mnJDClbXUlfHgBhR2IkxDh8MBw+EQmqZit9uFxeIyzgSaTCYoFosolZ7RaDQw+5px2ZQVhAmkKArS6TvnyeUeUa2+oC/3L2qLCdTr9TwgAstk0hCEJzSbl7MVGaher4MsEZhrS1Fk7rYiA9HxaZoGURQdKLJVKAhoSS3M53PWtYg1FhnIMD6w2Wxg2za63a5nK5/PofZagyzzsRULyP3U5XIJVVUhihXPliDwsZUIiMCOtizuthIDhdmSJCnR3Tob6NRWp9Px3S1KhjhVngvQb1uVk7tFmUi2FouFO4355grk2rJsC0G2BoMB9vv9/wK5u1EmjkYjlCtlLxOPtlpMW9wNuUCeLctCu/2Gh58q79YtshXUYgAZQesj9f1lyzRN33omkPlpIpu9dzLn3F8PqlvWiS2KO51O4wGt12vouo7x2HAKoW91gg6yZRgG9Hcdq9XKF4FpiGZvt9tYdcS3Q0AH1SWKG9RCgYIWXbLvBhRm9+oMfQMnDkEK5UTu4AAAAABJRU5ErkJggg==;movable=1;editable=0;resizeWidth=0;" parent="wv7daCviZKQoiw0kIBDT-484" vertex="1">
          <mxGeometry x="2.3799999999999955" y="15.170000000000002" width="24" height="18" as="geometry" />
        </mxCell>
        <mxCell id="wv7daCviZKQoiw0kIBDT-486" value="" style="shape=image;verticalLabelPosition=bottom;labelBackgroundColor=#ffffff;verticalAlign=top;aspect=fixed;imageAspect=0;image=data:image/png,iVBORw0KGgoAAAANSUhEUgAAACIAAAAYCAYAAACfpi8JAAACf0lEQVRIDe2W30siURTH+xfX2WzVzIJ1ZINy3YrsodZye1t9EEEn1nX1KQjxZUWlhYpAsadWwQf7oRAKbiboqiSl3+Vcl4F0xp+09LAXBmbOved7Pvfcc65O4YWMqRfCgYlBLi4uEIlEUK1WJ9rTRCA3+Rusra2C5/VwOBx4fHwcG2ZskFqthh3rDjhOAYXiFTQaNcLh8L8Fabfb2Puyh5kZJYMgEHoMBh6Xl5djwYyVkWg0Cu2c9m9wA3w+nwi0ZdlCvV4fGWZkkHQ6Dd7As8Aq1RvEYjGUy2VYrVZmUyqn4ff7nxekVCph3bwu7v7g4AD39/cs6NXVFfT6t2xOp9MhcZYYCWbojDSbTdhsNrxWciyYzfYZlUpFDNZqtXB0dASO68wb3xtRLBbF+UEvQ4Ps7++DjoKKcmXlA/KFfI92o9GAy+ViawjIbrfj4eGhZ52UYSgQqoOFhflO2ud1SKVSoM6RGpQFAiVgtVqFUOi71LIe20CQXC6HpeUlJjyt5HD443DgLs9/nkMzq2E+VDeZTKYncLehL0j1dxUWi0W8tLzer0O1JtVTIBBgIJSZzY+boAuw35AFoeJzC25QO5LY9rYFd3d3/bSezFEh7+5+Yr6k4f3mfTLf/SELEgqFMKudZUKLi+9wfX3d7TvwO5fLQs/rmYZON4d4PC7rIwmSTCbFO4EK7uwsAcrQqIN8jo+PQbVFWTUal2VbWhLEbDYzR/pBCwaDoDMfd1BLC4Jb1PN4PJJSkiAmk4k5Op3Oif9nUNTb21/Y2OhsThCE4UGo3U5PT2XTKKk0wJjNZnFycoJCoSC5UjIjdFlNchySkYC+mpIgckLPaf8P0p3dP6Da6TewrkbUAAAAAElFTkSuQmCC;movable=1;editable=0;resizeWidth=0;" parent="wv7daCviZKQoiw0kIBDT-484" vertex="1">
          <mxGeometry x="3.3799999999999955" y="31.570000000000007" width="21.25" height="15" as="geometry" />
        </mxCell>
        <mxCell id="wv7daCviZKQoiw0kIBDT-487" value="" style="shape=image;verticalLabelPosition=bottom;labelBackgroundColor=#ffffff;verticalAlign=top;aspect=fixed;imageAspect=0;image=data:image/png,iVBORw0KGgoAAAANSUhEUgAAACQAAAAcCAYAAAAJKR1YAAAEAklEQVRYCe1WWU9aURDuX6y0oODeVJZS4EFBaZpGKkRMtYuUxgejiMUFjIk2GiMGbRsf5AWVaqLGJdYtEYyoMcZlmpl6xnsr6rXhoQ+d5Oae5ZuZ78w5M+c8gH9MHvxjfOA/obt25MYIZTIZCId7we1xg9vthtHo6F22cjKfldDh4SE0NDRAWVkpPFKrQKVSgV5fAVNTU3/l9PT0lHS/f/8Gu7u7t9rISijYGYT8fA3k5T0Eg0EPavVjatfVvb7VWLbJ8/NzaGlpAbPZDCaTEV68cMLa2lo2KI1dI7TxcwNKS0uIgNn8DObm5sDpdFJfp9PC2dmZzFgqtQszMzM3OkkkElBYqCN9XKBKlQdNTY0yG9LONUI9Pd2sPDIyAhcXF+D3+3lsf3+f9b9+nYCammqwWi1QWVkJ/f39PCcaPl8z6WoK8qGqqpLauLC9vT0Bkf1lhNC5xfKclEpKS+Dg4IDAgUA7E9rc3KSxpaUlMBoNPI6rf/KkHFZWVmQOKiqeEsbusENvby/jMarZREYInYnzUu+tZ3xnZycbEvv//sN7GqMteNvE8319fayXTqcpKZCs/5Mf4vE44zD62URGaHxinBWGh4cZHwp95nEkhNtWVFRIYw6HHba2tuCxWkV9r9fLeslkkvVwO5eXl7kfCoUYJ23ICLW2trKCNPQdwQ4eX19fh3h8ivuRSITsYYnASNjtVWx/bGyMcZOTk7QQxODX3PyBcdKGjJDTWUNgnU4HJycnjGtvl56hDWhra2NHi4uLhBPnyfzczHrd3VcJgjgsAbrLjMNkyCYyQsXFReSoutohw0oJ4DnDKOAqi0uKmbhIBqPJyLp+/0cmLrLqatFaiEaj18qIjJDP5wOD0QCxWIyNYiMYDLJhrEuiaNa6ahlns1kJIyXkcrloTKNRs+MvXwbZll6vh9lZebbJCO3s7MDCwgLg1SGVgYEBNhIIBLgtrTtW629CpmcmVrVYLYTF1BeCkXr37i1gXcLSIj2riJEREkp//hPTCSZRXl5G7YKCfBA1CfFiywQhrGlabQFh8bqQyvb2NiR/JGF+fp63XMwrInR0dATWyy0RWYLFUnqNCEJiy1KpFF0TiMeapVQUEUJjeHYwVd3uOohEwoAOpWKz2SgaTy+3J5mc5aiGw2Ep9Na2YkKYsnjG8PLNZK7uM2Hd4XAQAcxUlMHBq3N3n2eLYkLC8U1/j8dDhLBiYw3zeuupj28pvEKUSs4ISS/gWGwMRE3DmoXRVSo5IzQ9Pc1nRlRtPNBDQ0NKuRAuZ4SOj4/p/S2yEP8vX72k++s+jHJGCJ3ige/q7oLGxjeAz+DV1dX7cMlthIRnrMT4HEnvpem1KcaV/nMaIaVOb8P9ApxK3cOKdAD4AAAAAElFTkSuQmCC;movable=1;editable=0;resizeWidth=0;" parent="wv7daCviZKQoiw0kIBDT-484" vertex="1">
          <mxGeometry x="3.3799999999999955" y="70.83000000000003" width="22.72" height="17.67" as="geometry" />
        </mxCell>
        <mxCell id="wv7daCviZKQoiw0kIBDT-488" value="" style="shape=image;verticalLabelPosition=bottom;labelBackgroundColor=#ffffff;verticalAlign=top;aspect=fixed;imageAspect=0;image=data:image/png,iVBORw0KGgoAAAANSUhEUgAAABwAAAAaCAYAAACkVDyJAAAByUlEQVRIDe2UwUsCQRTG/RfzYrRq5KGStFO6N7FELb1YarChIObFiwfRSDT2qHbxIIh4UNAUFMGDKArCi3mxw7pOrJhJhAsf+2b2vfnNfPsYDez40eyYB3vg1h3fiqWtVgui0SgIgkAVf47DZDJZ2fBWgMlkEvR6DjjuiMp4bIR2u70ecLFYQK/Xg+5Hl2owGKwUSxPkZFrtAfh8d5DNZlCiKMJ0OpVS6Jt5wnQ6DXa7DWy2Kyqe56Fer9NCeSABU6kU2kisnM1m8hQaM4F+vx93bDKdgNl8Dpyew7EovtFCeSABM5mMfJoZM4EejwcBZMeNRgO8t14c53KvuMhoNILyexlKpRLK5brB7z8GFotFBIQfw0vAWCwGFssFlcGgx+/ZlyzzVPJJ5gkTiQR2XbPZZAKd104E8Lwd3B43ivyGTqcjX5sZM4GkI2u1GszncybQ4XQgsFDI0y4mXU26W+1hApVFSkslYKVSUaaqjv82MHAfgHwhD9ZLK1r6aycUnr5uEnJdnZ2dgu5Qh8BqtapqoTJhLUvJDRMKhSAYfKCKRCMwHo+V66mO1wKSbu33+0saDoeqi7MS1gKyCjed2wM3de7buv9v6SdXaLHY4hbQvwAAAABJRU5ErkJggg==;resizeWidth=0;" parent="wv7daCviZKQoiw0kIBDT-484" vertex="1">
          <mxGeometry y="46.57000000000001" width="28" height="26" as="geometry" />
        </mxCell>
        <mxCell id="wv7daCviZKQoiw0kIBDT-489" value="" style="pointerEvents=1;verticalLabelPosition=bottom;shadow=0;dashed=0;align=center;html=1;verticalAlign=top;shape=mxgraph.electrical.waveforms.sine_wave;labelBackgroundColor=#ffffff;sketch=0;fontColor=#000000;fillColor=none;strokeWidth=3;resizeWidth=0;" parent="wv7daCviZKQoiw0kIBDT-484" vertex="1">
          <mxGeometry x="5.239999999999995" width="19" height="17" as="geometry" />
        </mxCell>
        <mxCell id="wv7daCviZKQoiw0kIBDT-490" value="" style="html=1;shadow=0;dashed=0;align=center;verticalAlign=middle;shape=mxgraph.arrows2.arrow;dy=0.6;dx=40;notch=0;labelBackgroundColor=#ffffff;sketch=0;strokeWidth=1;fontColor=#000000;fillColor=#FF3333;strokeColor=#FF3333;resizeWidth=0;connectable=0;allowArrows=0;recursiveResize=0;expand=0;rotatable=0;" parent="1" vertex="1">
          <mxGeometry x="63" y="376.33" width="20" height="12.6" as="geometry" />
        </mxCell>
        <mxCell id="wv7daCviZKQoiw0kIBDT-491" value="Wave" style="text;html=1;strokeColor=none;fillColor=none;align=center;verticalAlign=middle;whiteSpace=wrap;rounded=0;shadow=0;labelBackgroundColor=#ffffff;sketch=0;fontColor=#000000;resizeWidth=0;allowArrows=0;expand=0;editable=0;movable=0;resizable=0;rotatable=0;" parent="1" vertex="1">
          <mxGeometry x="20" y="373.33" width="40" height="20" as="geometry" />
        </mxCell>
        <mxCell id="wv7daCviZKQoiw0kIBDT-492" value="Sync" style="text;html=1;strokeColor=none;fillColor=none;align=center;verticalAlign=middle;whiteSpace=wrap;rounded=0;shadow=0;labelBackgroundColor=#ffffff;sketch=0;fontColor=#000000;resizeWidth=0;allowArrows=0;expand=0;editable=0;movable=0;resizable=0;rotatable=0;" parent="1" vertex="1">
          <mxGeometry x="21.5" y="600" width="40" height="20" as="geometry" />
        </mxCell>
        <mxCell id="wv7daCviZKQoiw0kIBDT-493" value="" style="html=1;shadow=0;dashed=0;align=center;verticalAlign=middle;shape=mxgraph.arrows2.arrow;dy=0.6;dx=40;notch=0;labelBackgroundColor=#ffffff;sketch=0;strokeWidth=1;fontColor=#000000;fillColor=#FF3333;strokeColor=#FF3333;resizeWidth=0;recursiveResize=0;expand=0;editable=0;resizable=0;rotatable=0;cloneable=1;connectable=0;allowArrows=0;" parent="1" vertex="1">
          <mxGeometry x="61.5" y="604.51" width="20" height="12.6" as="geometry" />
        </mxCell>
        <mxCell id="wv7daCviZKQoiw0kIBDT-494" value="Seq" style="text;html=1;strokeColor=none;fillColor=none;align=center;verticalAlign=middle;whiteSpace=wrap;rounded=0;shadow=0;labelBackgroundColor=#ffffff;sketch=0;fontColor=#000000;resizeWidth=0;allowArrows=0;expand=0;editable=0;movable=0;resizable=0;rotatable=0;" parent="1" vertex="1">
          <mxGeometry x="84.5" y="600.81" width="40" height="20" as="geometry" />
        </mxCell>
        <mxCell id="wv7daCviZKQoiw0kIBDT-495" value="Free" style="text;html=1;strokeColor=none;fillColor=none;align=center;verticalAlign=middle;whiteSpace=wrap;rounded=0;shadow=0;labelBackgroundColor=#ffffff;sketch=0;fontColor=#000000;resizeWidth=0;allowArrows=0;expand=0;editable=0;movable=0;resizable=0;rotatable=0;" parent="1" vertex="1">
          <mxGeometry x="84.5" y="620.81" width="40" height="20" as="geometry" />
        </mxCell>
        <mxCell id="wv7daCviZKQoiw0kIBDT-496" value="" style="verticalLabelPosition=bottom;verticalAlign=top;html=1;shape=mxgraph.basic.donut;dx=10;strokeColor=none;fontSize=10;align=center;fillOpacity=20;shadow=0;labelBackgroundColor=#000000;sketch=0;fillColor=#000000;expand=0;dropTarget=0;resizable=0;movable=1;rotatable=0;deletable=0;resizeWidth=0;recursiveResize=0;allowArrows=0;connectable=0;" parent="1" vertex="1">
          <mxGeometry x="20.5" y="480" width="105" height="105" as="geometry" />
        </mxCell>
        <mxCell id="wv7daCviZKQoiw0kIBDT-497" value="&lt;font color=&quot;#000000&quot;&gt;Rate&lt;/font&gt;" style="verticalLabelPosition=middle;verticalAlign=middle;html=1;shape=mxgraph.basic.partConcEllipse;startAngle=0.8435835209054994;endAngle=0.9043361408088788;arcWidth=0.17;strokeColor=none;fillColor=#10739E;fontSize=22;fontColor=#10739E;align=center;fontStyle=1;resizeWidth=0;" parent="wv7daCviZKQoiw0kIBDT-496" vertex="1">
          <mxGeometry width="105" height="105" as="geometry" />
        </mxCell>
        <mxCell id="wv7daCviZKQoiw0kIBDT-154" value="&lt;font color=&quot;#ffffff&quot;&gt;VCO 2&lt;/font&gt;" style="rounded=0;whiteSpace=wrap;html=1;shadow=0;strokeColor=#000000;fontColor=#000000;fillColor=#000000;imageAspect=0;allowArrows=0;connectable=0;recursiveResize=0;expand=0;part=1;resizable=1;resizeWidth=0;editable=0;movable=0;cloneable=0;rotatable=0;" parent="1" vertex="1">
          <mxGeometry x="990.8724832214765" y="20" width="42.281879194630875" height="17.777777777777782" as="geometry" />
        </mxCell>
        <mxCell id="wv7daCviZKQoiw0kIBDT-184" value="&lt;font color=&quot;#ffffff&quot;&gt;EXT IN&lt;/font&gt;" style="rounded=0;whiteSpace=wrap;html=1;shadow=0;strokeColor=#000000;fontColor=#000000;fillColor=#000000;imageAspect=0;allowArrows=0;connectable=0;recursiveResize=0;expand=0;part=1;resizable=1;resizeWidth=0;editable=0;movable=0;cloneable=0;rotatable=0;" parent="1" vertex="1">
          <mxGeometry x="1071.2080536912752" y="20" width="42.281879194630875" height="17.777777777777782" as="geometry" />
        </mxCell>
        <mxCell id="wv7daCviZKQoiw0kIBDT-502" value="" style="verticalLabelPosition=bottom;verticalAlign=top;html=1;shape=mxgraph.basic.donut;dx=10;strokeColor=none;fillColor=#10739E;fontSize=10;align=center;fillOpacity=20;shadow=0;labelBackgroundColor=#000000;sketch=0;movable=0;resizable=0;deletable=0;rotatable=0;container=0;recursiveResize=0;expand=0;editable=0;" parent="1" vertex="1">
          <mxGeometry x="341.3608721228393" y="49" width="79.58912787716068" height="74.34940770450515" as="geometry" />
        </mxCell>
        <mxCell id="wv7daCviZKQoiw0kIBDT-504" value="" style="verticalLabelPosition=bottom;verticalAlign=top;html=1;shape=mxgraph.basic.donut;dx=10;strokeColor=none;fillColor=#10739E;fontSize=10;align=center;fillOpacity=20;shadow=0;labelBackgroundColor=#000000;sketch=0;movable=0;resizable=0;deletable=0;rotatable=0;container=0;" parent="1" vertex="1">
          <mxGeometry x="431.57" y="49.000592295494826" width="79.58912787716068" height="74.34940770450515" as="geometry" />
        </mxCell>
        <mxCell id="wv7daCviZKQoiw0kIBDT-506" value="" style="verticalLabelPosition=bottom;verticalAlign=top;html=1;shape=mxgraph.basic.donut;dx=10;strokeColor=none;fillColor=#10739E;fontSize=10;align=center;fillOpacity=20;shadow=0;labelBackgroundColor=#000000;sketch=0;movable=0;resizable=0;deletable=0;rotatable=0;container=0;cloneable=0;editable=0;expand=0;recursiveResize=0;allowArrows=0;connectable=0;" parent="1" vertex="1">
          <mxGeometry x="157.15804066487675" y="134.0705922954948" width="79.58912787716068" height="74.34940770450515" as="geometry" />
        </mxCell>
        <mxCell id="wv7daCviZKQoiw0kIBDT-508" value="" style="verticalLabelPosition=bottom;verticalAlign=top;html=1;shape=mxgraph.basic.donut;dx=10;strokeColor=none;fillColor=#10739E;fontSize=10;align=center;fillOpacity=20;shadow=0;labelBackgroundColor=#000000;sketch=0;movable=0;resizable=0;deletable=0;rotatable=0;container=0;connectable=0;allowArrows=0;recursiveResize=0;expand=0;editable=0;cloneable=0;" parent="1" vertex="1">
          <mxGeometry x="250.872608525144" y="134.0705922954948" width="79.58912787716068" height="74.34940770450515" as="geometry" />
        </mxCell>
        <mxCell id="wv7daCviZKQoiw0kIBDT-511" value="" style="verticalLabelPosition=bottom;verticalAlign=top;html=1;shape=mxgraph.basic.donut;dx=10;strokeColor=none;fillColor=#10739E;fontSize=10;align=center;fillOpacity=20;shadow=0;labelBackgroundColor=#000000;sketch=0;fontStyle=1;movable=0;resizable=0;deletable=0;rotatable=0;container=0;" parent="1" vertex="1">
          <mxGeometry x="341.362608525144" y="134.0705922954948" width="79.58912787716068" height="74.34940770450515" as="geometry" />
        </mxCell>
        <mxCell id="wv7daCviZKQoiw0kIBDT-513" value="" style="verticalLabelPosition=bottom;verticalAlign=top;html=1;shape=mxgraph.basic.donut;dx=10;strokeColor=none;fillColor=#10739E;fontSize=10;align=center;fillOpacity=20;shadow=0;labelBackgroundColor=#000000;sketch=0;movable=0;resizable=0;deletable=0;rotatable=0;container=0;connectable=0;allowArrows=0;recursiveResize=0;editable=0;expand=0;cloneable=0;" parent="1" vertex="1">
          <mxGeometry x="431.572608525144" y="134.0705922954948" width="79.58912787716068" height="74.34940770450515" as="geometry" />
        </mxCell>
        <mxCell id="wv7daCviZKQoiw0kIBDT-498" value="" style="verticalLabelPosition=bottom;verticalAlign=top;html=1;shape=mxgraph.basic.donut;dx=10;strokeColor=none;fillColor=#10739E;fontSize=10;align=center;fillOpacity=20;shadow=0;labelBackgroundColor=#000000;sketch=0;movable=0;resizable=0;deletable=0;rotatable=0;connectable=1;dropTarget=0;expand=0;recursiveResize=0;metaEdit=0;container=0;editable=0;" parent="1" vertex="1">
          <mxGeometry x="157.15826359769525" y="49" width="79.58912787716068" height="74.34940770450515" as="geometry" />
        </mxCell>
        <mxCell id="wv7daCviZKQoiw0kIBDT-499" value="&lt;font style=&quot;font-size: 12px&quot;&gt;Fine Tune&lt;/font&gt;" style="verticalLabelPosition=middle;verticalAlign=middle;html=1;shape=mxgraph.basic.partConcEllipse;startAngle=0.9809922960760251;endAngle=0.004773216671265159;arcWidth=0.23;strokeColor=none;fillColor=#10739E;fontSize=22;fontColor=#10739E;align=center;fontStyle=1;movable=0;resizable=0;deletable=0;rotatable=1;metaEdit=0;connectable=0;recursiveResize=0;expand=0;editable=0;allowArrows=0;cloneable=0;perimeter=rectanglePerimeter;" parent="1" vertex="1">
          <mxGeometry x="157.16" y="50" width="79.59" height="73.35" as="geometry" />
        </mxCell>
        <mxCell id="wv7daCviZKQoiw0kIBDT-503" value="&lt;font style=&quot;font-size: 12px&quot;&gt;Pulse&lt;br&gt;Width&lt;/font&gt;" style="verticalLabelPosition=middle;verticalAlign=middle;html=1;shape=mxgraph.basic.partConcEllipse;startAngle=0.4968173254495136;endAngle=0.51283312078239;arcWidth=0.24;strokeColor=none;fillColor=#10739E;fontSize=22;fontColor=#10739E;align=center;fontStyle=1;movable=0;resizable=0;deletable=0;rotatable=1;connectable=0;allowArrows=0;recursiveResize=0;expand=0;editable=0;cloneable=0;" parent="1" vertex="1">
          <mxGeometry x="341.36" y="50" width="79.59" height="73.35" as="geometry" />
        </mxCell>
        <mxCell id="wv7daCviZKQoiw0kIBDT-505" value="&lt;font style=&quot;font-size: 12px&quot;&gt;Metalizer&lt;/font&gt;" style="verticalLabelPosition=middle;verticalAlign=middle;html=1;shape=mxgraph.basic.partConcEllipse;startAngle=0.4936371943260041;endAngle=0.5047732166712652;arcWidth=0.23;strokeColor=none;fillColor=#10739E;fontSize=22;fontColor=#10739E;align=center;fontStyle=1;movable=0;resizable=0;deletable=0;rotatable=1;connectable=0;allowArrows=0;recursiveResize=0;editable=0;expand=0;cloneable=0;" parent="1" vertex="1">
          <mxGeometry x="431.57" y="49.000592295494826" width="79.58912787716068" height="74.34940770450515" as="geometry" />
        </mxCell>
        <mxCell id="wv7daCviZKQoiw0kIBDT-507" value="&lt;font style=&quot;font-size: 12px&quot;&gt;FM&lt;/font&gt;" style="verticalLabelPosition=middle;verticalAlign=middle;html=1;shape=mxgraph.basic.partConcEllipse;startAngle=0.4763034288612552;endAngle=0.49204887437191186;arcWidth=0.23;strokeColor=none;fillColor=#10739E;fontSize=22;fontColor=#10739E;align=center;fontStyle=1;movable=0;resizable=0;deletable=0;rotatable=1;recursiveResize=0;expand=0;editable=0;allowArrows=0;connectable=0;cloneable=0;" parent="1" vertex="1">
          <mxGeometry x="157.15804066487675" y="134.0705922954948" width="79.58912787716068" height="74.34940770450515" as="geometry" />
        </mxCell>
        <mxCell id="wv7daCviZKQoiw0kIBDT-509" value="&lt;font style=&quot;font-size: 12px&quot;&gt;UltraSaw&lt;br&gt;Amt&lt;/font&gt;" style="verticalLabelPosition=middle;verticalAlign=middle;html=1;shape=mxgraph.basic.partConcEllipse;startAngle=0.4904621378820819;endAngle=0.5063628056739959;arcWidth=0.24;strokeColor=none;fillColor=#10739E;fontSize=22;fontColor=#10739E;align=center;fontStyle=1;movable=0;resizable=0;deletable=0;rotatable=1;cloneable=0;editable=0;expand=0;recursiveResize=0;allowArrows=0;connectable=0;" parent="1" vertex="1">
          <mxGeometry x="250.872608525144" y="134.0705922954948" width="79.58912787716068" height="74.34940770450515" as="geometry" />
        </mxCell>
        <mxCell id="wv7daCviZKQoiw0kIBDT-512" value="&lt;span style=&quot;font-size: 12px&quot;&gt;PWM&lt;/span&gt;" style="verticalLabelPosition=middle;verticalAlign=middle;html=1;shape=mxgraph.basic.partConcEllipse;startAngle=0.4763034288612552;endAngle=0.4968173254495136;arcWidth=0.24;strokeColor=none;fillColor=#10739E;fontSize=22;fontColor=#10739E;align=center;fontStyle=1;movable=0;resizable=0;deletable=0;rotatable=1;connectable=0;allowArrows=0;recursiveResize=0;expand=0;editable=0;cloneable=0;" parent="1" vertex="1">
          <mxGeometry x="341.362608525144" y="134.0705922954948" width="79.58912787716068" height="74.34940770450515" as="geometry" />
        </mxCell>
        <mxCell id="wv7daCviZKQoiw0kIBDT-514" value="&lt;span style=&quot;font-size: 12px&quot;&gt;Meta&lt;/span&gt;&lt;font style=&quot;font-size: 12px&quot;&gt;l&lt;br&gt;Mod&lt;/font&gt;" style="verticalLabelPosition=middle;verticalAlign=middle;html=1;shape=mxgraph.basic.partConcEllipse;startAngle=0.4936371943260041;endAngle=0.5095378621179181;arcWidth=0.25;strokeColor=none;fillColor=#10739E;fontSize=22;fontColor=#10739E;align=center;fontStyle=1;movable=0;resizable=0;deletable=0;rotatable=1;connectable=0;allowArrows=0;recursiveResize=0;expand=0;editable=0;cloneable=0;" parent="1" vertex="1">
          <mxGeometry x="431.572608525144" y="134.0705922954948" width="79.58912787716068" height="74.34940770450515" as="geometry" />
        </mxCell>
        <mxCell id="wv7daCviZKQoiw0kIBDT-520" value="" style="verticalLabelPosition=bottom;verticalAlign=top;html=1;shape=mxgraph.basic.donut;dx=10;strokeColor=none;fillColor=#10739E;fontSize=12;align=center;fillOpacity=20;shadow=0;labelBackgroundColor=#000000;sketch=0;deletable=0;cloneable=0;rotatable=0;resizable=0;movable=0;editable=0;expand=0;recursiveResize=0;dropTarget=0;allowArrows=0;connectable=0;" parent="1" vertex="1">
          <mxGeometry x="159.45" y="262.6" width="75" height="75" as="geometry" />
        </mxCell>
        <mxCell id="wv7daCviZKQoiw0kIBDT-521" value="&lt;font style=&quot;font-size: 12px&quot;&gt;Tune&lt;/font&gt;" style="verticalLabelPosition=middle;verticalAlign=middle;html=1;shape=mxgraph.basic.partConcEllipse;startAngle=0.9920488743719118;endAngle=0.012705336833057948;arcWidth=0.25;strokeColor=none;fillColor=#10739E;fontSize=22;fontColor=#10739E;align=center;fontStyle=1;resizable=0;deletable=0;cloneable=0;movable=0;editable=0;expand=0;recursiveResize=0;allowArrows=0;connectable=0;" parent="wv7daCviZKQoiw0kIBDT-520" vertex="1">
          <mxGeometry width="75" height="75" as="geometry" />
        </mxCell>
        <mxCell id="wv7daCviZKQoiw0kIBDT-530" value="" style="group;movable=0;resizable=0;rotatable=0;deletable=0;allowArrows=0;dropTarget=0;recursiveResize=0;expand=0;editable=0;cloneable=0;" parent="1" vertex="1" connectable="0">
          <mxGeometry x="278.67" y="280.81" width="24" height="47.110000000000014" as="geometry" />
        </mxCell>
        <mxCell id="wv7daCviZKQoiw0kIBDT-523" value="" style="shape=image;verticalLabelPosition=bottom;labelBackgroundColor=#ffffff;verticalAlign=top;aspect=fixed;imageAspect=0;image=data:image/png,iVBORw0KGgoAAAANSUhEUgAAACQAAAAbCAYAAAAULC3gAAABuklEQVRYCe2Wy26CQBSGfcVqaqsPULQulWp3PoPKsupzKMTERAhtcGOoO9hUXbnVGC9/c7AQU+hwcWxcOAkhmcuZj2/mnJDClbXUlfHgBhR2IkxDh8MBw+EQmqZit9uFxeIyzgSaTCYoFosolZ7RaDQw+5px2ZQVhAmkKArS6TvnyeUeUa2+oC/3L2qLCdTr9TwgAstk0hCEJzSbl7MVGaher4MsEZhrS1Fk7rYiA9HxaZoGURQdKLJVKAhoSS3M53PWtYg1FhnIMD6w2Wxg2za63a5nK5/PofZagyzzsRULyP3U5XIJVVUhihXPliDwsZUIiMCOtizuthIDhdmSJCnR3Tob6NRWp9Px3S1KhjhVngvQb1uVk7tFmUi2FouFO4355grk2rJsC0G2BoMB9vv9/wK5u1EmjkYjlCtlLxOPtlpMW9wNuUCeLctCu/2Gh58q79YtshXUYgAZQesj9f1lyzRN33omkPlpIpu9dzLn3F8PqlvWiS2KO51O4wGt12vouo7x2HAKoW91gg6yZRgG9Hcdq9XKF4FpiGZvt9tYdcS3Q0AH1SWKG9RCgYIWXbLvBhRm9+oMfQMnDkEK5UTu4AAAAABJRU5ErkJggg==;movable=0;editable=0;resizeWidth=0;resizable=0;rotatable=0;deletable=0;allowArrows=0;" parent="wv7daCviZKQoiw0kIBDT-530" vertex="1">
          <mxGeometry y="15.170000000000016" width="24" height="18" as="geometry" />
        </mxCell>
        <mxCell id="wv7daCviZKQoiw0kIBDT-527" value="" style="pointerEvents=1;verticalLabelPosition=bottom;shadow=0;dashed=0;align=center;html=1;verticalAlign=top;shape=mxgraph.electrical.waveforms.sine_wave;labelBackgroundColor=#ffffff;sketch=0;fontColor=#000000;fillColor=none;strokeWidth=3;resizeWidth=0;movable=0;resizable=0;rotatable=0;deletable=0;allowArrows=0;" parent="wv7daCviZKQoiw0kIBDT-530" vertex="1">
          <mxGeometry x="2.8600000000000136" width="19" height="17" as="geometry" />
        </mxCell>
        <mxCell id="wv7daCviZKQoiw0kIBDT-529" value="" style="pointerEvents=1;verticalLabelPosition=bottom;shadow=0;dashed=0;align=center;html=1;verticalAlign=top;shape=mxgraph.electrical.waveforms.square_wave;labelBackgroundColor=#000000;sketch=0;strokeColor=#000000;strokeWidth=2;fillColor=#ffffff;fontSize=9;fontColor=#FFFFFF;movable=0;resizable=0;rotatable=0;deletable=0;allowArrows=0;" parent="wv7daCviZKQoiw0kIBDT-530" vertex="1">
          <mxGeometry x="5" y="35.110000000000014" width="14" height="12" as="geometry" />
        </mxCell>
        <mxCell id="wv7daCviZKQoiw0kIBDT-531" value="" style="html=1;shadow=0;dashed=0;align=center;verticalAlign=middle;shape=mxgraph.arrows2.arrow;dy=0.6;dx=40;notch=0;labelBackgroundColor=#ffffff;sketch=0;strokeWidth=1;fontColor=#000000;fillColor=#FF3333;strokeColor=#FF3333;resizeWidth=0;connectable=0;allowArrows=0;recursiveResize=0;expand=0;rotatable=0;movable=1;editable=0;resizable=0;cloneable=0;deletable=0;" parent="1" vertex="1">
          <mxGeometry x="253.17" y="283.7" width="20" height="12.6" as="geometry" />
        </mxCell>
        <mxCell id="wv7daCviZKQoiw0kIBDT-533" value="&lt;font color=&quot;#ffffff&quot;&gt;VCO 2&lt;/font&gt;" style="rounded=0;whiteSpace=wrap;html=1;shadow=0;strokeColor=#000000;fontColor=#000000;fillColor=#000000;imageAspect=0;allowArrows=0;connectable=0;recursiveResize=0;expand=0;part=1;resizable=0;resizeWidth=0;movable=0;deletable=0;rotatable=0;cloneable=0;editable=0;" parent="1" vertex="1">
          <mxGeometry x="302.67" y="230" width="50" height="17.78" as="geometry" />
        </mxCell>
        <mxCell id="wv7daCviZKQoiw0kIBDT-534" value="Wave" style="text;html=1;strokeColor=none;fillColor=none;align=center;verticalAlign=middle;whiteSpace=wrap;rounded=0;shadow=0;labelBackgroundColor=#FFFFFF;sketch=0;fontSize=12;connectable=0;allowArrows=0;recursiveResize=0;expand=0;editable=0;movable=0;resizable=0;rotatable=0;cloneable=0;deletable=0;pointerEvents=0;" parent="1" vertex="1">
          <mxGeometry x="262.67" y="253.31000000000003" width="40" height="20" as="geometry" />
        </mxCell>
        <mxCell id="wv7daCviZKQoiw0kIBDT-535" value="" style="html=1;shadow=0;dashed=0;align=center;verticalAlign=middle;shape=mxgraph.arrows2.arrow;dy=0.6;dx=40;notch=0;labelBackgroundColor=#ffffff;sketch=0;strokeWidth=1;fontColor=#000000;fillColor=#FF3333;strokeColor=#FF3333;resizeWidth=0;connectable=0;allowArrows=0;recursiveResize=0;expand=0;rotatable=0;movable=1;editable=0;resizable=0;cloneable=0;deletable=0;" parent="1" vertex="1">
          <mxGeometry x="330.47" y="296.3" width="20" height="12.6" as="geometry" />
        </mxCell>
        <mxCell id="wv7daCviZKQoiw0kIBDT-536" value="Range" style="text;html=1;strokeColor=none;fillColor=none;align=center;verticalAlign=middle;whiteSpace=wrap;rounded=0;shadow=0;labelBackgroundColor=#FFFFFF;sketch=0;fontSize=12;connectable=0;allowArrows=0;recursiveResize=0;expand=0;editable=0;movable=0;resizable=0;rotatable=0;cloneable=0;deletable=0;" parent="1" vertex="1">
          <mxGeometry x="340.34000000000003" y="253.31" width="40" height="20" as="geometry" />
        </mxCell>
        <mxCell id="wv7daCviZKQoiw0kIBDT-537" value="Fine&lt;br&gt;All&lt;br&gt;LFO" style="text;html=1;strokeColor=none;fillColor=none;align=center;verticalAlign=middle;whiteSpace=wrap;rounded=0;shadow=0;labelBackgroundColor=#FFFFFF;sketch=0;fontSize=12;fontColor=#000000;movable=0;resizable=0;connectable=0;allowArrows=0;recursiveResize=0;expand=0;editable=0;rotatable=0;cloneable=0;deletable=0;" parent="1" vertex="1">
          <mxGeometry x="350.47" y="273.31" width="40" height="56.69" as="geometry" />
        </mxCell>
        <mxCell id="wv7daCviZKQoiw0kIBDT-538" value="" style="verticalLabelPosition=bottom;verticalAlign=top;html=1;shape=mxgraph.basic.donut;dx=10;strokeColor=none;fillColor=#10739E;fontSize=12;align=center;fillOpacity=20;shadow=0;labelBackgroundColor=#000000;sketch=0;connectable=0;allowArrows=0;dropTarget=0;recursiveResize=0;expand=0;editable=0;movable=0;resizable=0;rotatable=0;cloneable=0;deletable=0;" parent="1" vertex="1">
          <mxGeometry x="157.16" y="383.08000000000004" width="75" height="75" as="geometry" />
        </mxCell>
        <mxCell id="wv7daCviZKQoiw0kIBDT-539" value="&lt;font style=&quot;font-size: 12px&quot;&gt;Cutoff&lt;/font&gt;" style="verticalLabelPosition=middle;verticalAlign=middle;html=1;shape=mxgraph.basic.partConcEllipse;startAngle=0.47786219334910734;endAngle=0.5041873215521526;arcWidth=0.25;strokeColor=none;fillColor=#10739E;fontSize=22;fontColor=#10739E;align=center;fontStyle=1;resizable=0;connectable=0;allowArrows=0;recursiveResize=0;expand=0;editable=0;movable=0;cloneable=0;deletable=0;" parent="wv7daCviZKQoiw0kIBDT-538" vertex="1">
          <mxGeometry width="75" height="75" as="geometry" />
        </mxCell>
        <mxCell id="wv7daCviZKQoiw0kIBDT-540" value="" style="verticalLabelPosition=bottom;verticalAlign=top;html=1;shape=mxgraph.basic.donut;dx=10;strokeColor=none;fillColor=#10739E;fontSize=12;align=center;fillOpacity=20;shadow=0;labelBackgroundColor=#000000;sketch=0;deletable=0;rotatable=0;cloneable=0;resizable=0;movable=0;editable=0;expand=0;recursiveResize=0;dropTarget=0;allowArrows=0;connectable=0;" parent="1" vertex="1">
          <mxGeometry x="250.87" y="383.08000000000004" width="75" height="75" as="geometry" />
        </mxCell>
        <mxCell id="wv7daCviZKQoiw0kIBDT-541" value="&lt;font style=&quot;font-size: 12px&quot;&gt;Reso&lt;br&gt;nance&lt;/font&gt;" style="verticalLabelPosition=middle;verticalAlign=middle;html=1;shape=mxgraph.basic.partConcEllipse;startAngle=0.4763034288612552;endAngle=0.4968173254495136;arcWidth=0.25;strokeColor=none;fillColor=#10739E;fontSize=22;fontColor=#10739E;align=center;fontStyle=1;resizable=0;connectable=0;allowArrows=0;recursiveResize=0;expand=0;editable=0;movable=0;cloneable=0;deletable=0;" parent="wv7daCviZKQoiw0kIBDT-540" vertex="1">
          <mxGeometry width="75" height="75" as="geometry" />
        </mxCell>
        <mxCell id="wv7daCviZKQoiw0kIBDT-542" value="" style="verticalLabelPosition=bottom;verticalAlign=top;html=1;shape=mxgraph.basic.donut;dx=10;strokeColor=none;fillColor=#10739E;fontSize=12;align=center;fillOpacity=20;shadow=0;labelBackgroundColor=#000000;sketch=0;deletable=0;rotatable=0;cloneable=0;resizable=0;movable=0;editable=0;expand=0;recursiveResize=0;dropTarget=0;" parent="1" vertex="1">
          <mxGeometry x="343.66" y="383.08000000000004" width="75" height="75" as="geometry" />
        </mxCell>
        <mxCell id="wv7daCviZKQoiw0kIBDT-543" value="&lt;font style=&quot;font-size: 12px&quot;&gt;Mode&lt;/font&gt;" style="verticalLabelPosition=middle;verticalAlign=middle;html=1;shape=mxgraph.basic.partConcEllipse;startAngle=0.07122501617862578;endAngle=0.0895243262086071;arcWidth=0.25;strokeColor=none;fillColor=#10739E;fontSize=22;fontColor=#10739E;align=center;fontStyle=1;resizable=0;connectable=0;allowArrows=0;recursiveResize=0;expand=0;editable=0;movable=0;cloneable=0;deletable=0;" parent="wv7daCviZKQoiw0kIBDT-542" vertex="1">
          <mxGeometry width="75" height="75" as="geometry" />
        </mxCell>
        <mxCell id="wv7daCviZKQoiw0kIBDT-544" value="" style="verticalLabelPosition=bottom;verticalAlign=top;html=1;shape=mxgraph.basic.donut;dx=10;strokeColor=none;fillColor=#10739E;fontSize=12;align=center;fillOpacity=20;shadow=0;labelBackgroundColor=#000000;sketch=0;deletable=0;cloneable=0;rotatable=0;resizable=0;movable=0;editable=0;expand=0;recursiveResize=0;dropTarget=0;allowArrows=0;connectable=0;" parent="1" vertex="1">
          <mxGeometry x="157.16" y="480.00000000000006" width="75" height="75" as="geometry" />
        </mxCell>
        <mxCell id="wv7daCviZKQoiw0kIBDT-545" value="&lt;font style=&quot;font-size: 12px&quot;&gt;FM 1&lt;/font&gt;" style="verticalLabelPosition=middle;verticalAlign=middle;html=1;shape=mxgraph.basic.partConcEllipse;startAngle=0.34408558530663563;endAngle=0.380187996776206;arcWidth=0.25;strokeColor=none;fillColor=#10739E;fontSize=22;fontColor=#10739E;align=center;fontStyle=1;resizable=0;connectable=0;allowArrows=0;recursiveResize=0;expand=0;editable=0;movable=0;cloneable=0;deletable=0;" parent="wv7daCviZKQoiw0kIBDT-544" vertex="1">
          <mxGeometry width="75" height="75" as="geometry" />
        </mxCell>
        <mxCell id="wv7daCviZKQoiw0kIBDT-546" value="" style="verticalLabelPosition=bottom;verticalAlign=top;html=1;shape=mxgraph.basic.donut;dx=10;strokeColor=none;fillColor=#10739E;fontSize=12;align=center;fillOpacity=20;shadow=0;labelBackgroundColor=#000000;sketch=0;deletable=0;rotatable=0;cloneable=0;resizable=0;movable=0;editable=0;expand=0;recursiveResize=0;dropTarget=0;allowArrows=0;connectable=0;" parent="1" vertex="1">
          <mxGeometry x="250.88" y="480.00000000000006" width="75" height="75" as="geometry" />
        </mxCell>
        <mxCell id="wv7daCviZKQoiw0kIBDT-547" value="&lt;font style=&quot;font-size: 12px&quot;&gt;RM&lt;/font&gt;" style="verticalLabelPosition=middle;verticalAlign=middle;html=1;shape=mxgraph.basic.partConcEllipse;startAngle=0.9904621378820819;endAngle=0.023696571138744814;arcWidth=0.25;strokeColor=none;fillColor=#10739E;fontSize=22;fontColor=#10739E;align=center;fontStyle=1;resizable=0;" parent="wv7daCviZKQoiw0kIBDT-546" vertex="1">
          <mxGeometry width="75" height="75" as="geometry" />
        </mxCell>
        <mxCell id="wv7daCviZKQoiw0kIBDT-548" value="" style="verticalLabelPosition=bottom;verticalAlign=top;html=1;shape=mxgraph.basic.donut;dx=10;strokeColor=none;fillColor=#10739E;fontSize=12;align=center;fillOpacity=20;shadow=0;labelBackgroundColor=#000000;sketch=0;connectable=0;allowArrows=0;dropTarget=0;recursiveResize=0;editable=0;expand=0;movable=0;resizable=0;rotatable=0;cloneable=0;deletable=0;" parent="1" vertex="1">
          <mxGeometry x="343.65999999999997" y="480.00000000000006" width="75" height="75" as="geometry" />
        </mxCell>
        <mxCell id="wv7daCviZKQoiw0kIBDT-549" value="&lt;div&gt;&lt;span style=&quot;font-size: 12px&quot;&gt;Att 1&lt;/span&gt;&lt;/div&gt;&lt;div&gt;&lt;span style=&quot;font-size: 12px&quot;&gt;&amp;nbsp;➙Cutoff&amp;nbsp;&lt;/span&gt;&lt;/div&gt;" style="verticalLabelPosition=middle;verticalAlign=middle;html=1;shape=mxgraph.basic.partConcEllipse;startAngle=0.6962657520218857;endAngle=0.18007354298741624;arcWidth=0.25;strokeColor=none;fillColor=#10739E;fontSize=22;fontColor=#10739E;align=center;fontStyle=1;resizable=0;connectable=0;allowArrows=0;recursiveResize=0;expand=0;editable=0;movable=0;cloneable=0;deletable=0;" parent="wv7daCviZKQoiw0kIBDT-548" vertex="1">
          <mxGeometry width="75" height="75" as="geometry" />
        </mxCell>
        <mxCell id="wv7daCviZKQoiw0kIBDT-551" value="&lt;font color=&quot;#ffffff&quot;&gt;FILTER&lt;/font&gt;" style="rounded=0;whiteSpace=wrap;html=1;shadow=0;strokeColor=#000000;fontColor=#000000;fillColor=#000000;imageAspect=0;allowArrows=0;connectable=0;recursiveResize=0;expand=0;part=1;resizable=0;resizeWidth=0;movable=0;deletable=0;rotatable=0;editable=0;" parent="1" vertex="1">
          <mxGeometry x="300" y="360" width="50" height="17.78" as="geometry" />
        </mxCell>
        <mxCell id="wv7daCviZKQoiw0kIBDT-552" value="" style="verticalLabelPosition=bottom;verticalAlign=top;html=1;shape=mxgraph.basic.donut;dx=10;strokeColor=none;fillColor=#10739E;fontSize=12;align=center;fillOpacity=20;shadow=0;labelBackgroundColor=#000000;sketch=0;allowArrows=0;expand=0;editable=0;movable=0;resizable=0;rotatable=0;cloneable=0;deletable=0;connectable=0;dropTarget=0;recursiveResize=0;" parent="1" vertex="1">
          <mxGeometry x="159.45" y="586.6600000000001" width="75" height="75" as="geometry" />
        </mxCell>
        <mxCell id="wv7daCviZKQoiw0kIBDT-553" value="&lt;font style=&quot;font-size: 12px&quot;&gt;Brute&lt;br&gt;Factor&lt;br&gt;&lt;/font&gt;" style="verticalLabelPosition=middle;verticalAlign=middle;html=1;shape=mxgraph.basic.partConcEllipse;startAngle=0.5;endAngle=0.52334269747378;arcWidth=0.25;strokeColor=none;fillColor=#10739E;fontSize=22;fontColor=#10739E;align=center;fontStyle=1;resizable=0;connectable=0;allowArrows=0;recursiveResize=0;expand=0;editable=0;movable=0;cloneable=0;deletable=0;" parent="wv7daCviZKQoiw0kIBDT-552" vertex="1">
          <mxGeometry width="75" height="75" as="geometry" />
        </mxCell>
        <mxCell id="wv7daCviZKQoiw0kIBDT-554" value="" style="verticalLabelPosition=bottom;verticalAlign=top;html=1;shape=mxgraph.basic.donut;dx=10;strokeColor=none;fillColor=#10739E;fontSize=12;align=center;fillOpacity=20;shadow=0;labelBackgroundColor=#000000;sketch=0;allowArrows=0;expand=0;editable=0;movable=0;resizable=0;rotatable=0;cloneable=0;deletable=0;recursiveResize=0;dropTarget=0;connectable=0;" parent="1" vertex="1">
          <mxGeometry x="253.17" y="585.0000000000001" width="75" height="75" as="geometry" />
        </mxCell>
        <mxCell id="wv7daCviZKQoiw0kIBDT-555" value="&lt;font style=&quot;font-size: 12px&quot;&gt;Master&lt;br&gt;Volume&lt;br&gt;&lt;/font&gt;" style="verticalLabelPosition=middle;verticalAlign=middle;html=1;shape=mxgraph.basic.partConcEllipse;startAngle=0.03446505146500207;endAngle=0.11798300857883458;arcWidth=0.25;strokeColor=none;fillColor=#10739E;fontSize=22;fontColor=#10739E;align=center;fontStyle=1;resizable=0;" parent="wv7daCviZKQoiw0kIBDT-554" vertex="1">
          <mxGeometry width="75" height="75" as="geometry" />
        </mxCell>
        <mxCell id="wv7daCviZKQoiw0kIBDT-556" value="" style="verticalLabelPosition=bottom;verticalAlign=top;html=1;shape=mxgraph.basic.donut;dx=10;strokeColor=none;fillColor=#10739E;fontSize=12;align=center;fillOpacity=20;shadow=0;labelBackgroundColor=#000000;sketch=0;allowArrows=0;expand=0;editable=0;movable=0;resizable=0;rotatable=0;cloneable=0;deletable=0;recursiveResize=0;dropTarget=0;" parent="1" vertex="1">
          <mxGeometry x="159.44999999999996" y="680.0000000000001" width="75" height="75" as="geometry" />
        </mxCell>
        <mxCell id="wv7daCviZKQoiw0kIBDT-557" value="&lt;font style=&quot;font-size: 12px&quot;&gt;Global&lt;br&gt;Tune&lt;br&gt;&lt;/font&gt;" style="verticalLabelPosition=middle;verticalAlign=middle;html=1;shape=mxgraph.basic.partConcEllipse;startAngle=0.9794252440875133;endAngle=0.017436940248882097;arcWidth=0.25;strokeColor=none;fillColor=#10739E;fontSize=22;fontColor=#10739E;align=center;fontStyle=1;resizable=0;connectable=0;allowArrows=0;recursiveResize=0;expand=0;editable=0;movable=0;cloneable=0;deletable=0;" parent="wv7daCviZKQoiw0kIBDT-556" vertex="1">
          <mxGeometry width="75" height="75" as="geometry" />
        </mxCell>
        <mxCell id="wv7daCviZKQoiw0kIBDT-558" value="" style="verticalLabelPosition=bottom;verticalAlign=top;html=1;shape=mxgraph.basic.donut;dx=10;strokeColor=none;fillColor=#10739E;fontSize=12;align=center;fillOpacity=20;shadow=0;labelBackgroundColor=#000000;sketch=0;allowArrows=0;expand=0;editable=0;movable=0;resizable=0;rotatable=0;cloneable=0;deletable=0;connectable=0;dropTarget=0;recursiveResize=0;" parent="1" vertex="1">
          <mxGeometry x="253.16999999999996" y="680.0000000000001" width="75" height="75" as="geometry" />
        </mxCell>
        <mxCell id="wv7daCviZKQoiw0kIBDT-559" value="&lt;div&gt;&lt;span style=&quot;font-size: 12px&quot;&gt;Att 2&lt;/span&gt;&lt;/div&gt;&lt;div&gt;&lt;span style=&quot;font-size: 12px&quot;&gt;&amp;nbsp;➙Amp&lt;/span&gt;&lt;/div&gt;" style="verticalLabelPosition=middle;verticalAlign=middle;html=1;shape=mxgraph.basic.partConcEllipse;startAngle=0.5031826745504864;endAngle=0.5323619428820491;arcWidth=0.25;strokeColor=none;fillColor=#10739E;fontSize=22;fontColor=#10739E;align=center;fontStyle=1;resizable=0;connectable=0;allowArrows=0;recursiveResize=0;expand=0;editable=0;movable=0;cloneable=0;deletable=0;" parent="wv7daCviZKQoiw0kIBDT-558" vertex="1">
          <mxGeometry width="75" height="75" as="geometry" />
        </mxCell>
        <mxCell id="wv7daCviZKQoiw0kIBDT-561" value="&lt;font color=&quot;#ffffff&quot;&gt;AMP&lt;/font&gt;" style="rounded=0;whiteSpace=wrap;html=1;shadow=0;strokeColor=#000000;fontColor=#000000;fillColor=#000000;imageAspect=0;allowArrows=0;connectable=0;recursiveResize=0;expand=0;part=1;resizable=0;resizeWidth=0;movable=0;deletable=0;rotatable=0;editable=0;" parent="1" vertex="1">
          <mxGeometry x="220" y="570" width="50" height="17.78" as="geometry" />
        </mxCell>
        <mxCell id="wv7daCviZKQoiw0kIBDT-396" value="Pitch 2" style="ellipse;whiteSpace=wrap;html=1;aspect=fixed;shadow=0;labelBackgroundColor=#ffffff;sketch=0;strokeWidth=2;fontColor=#000000;labelBorderColor=#000000;labelPosition=center;verticalLabelPosition=bottom;align=center;verticalAlign=top;fillColor=none;recursiveResize=0;expand=0;resizable=0;rotatable=0;deletable=0;pointerEvents=0;editable=1;movable=0;resizeWidth=0;cloneable=0;" parent="1" vertex="1">
          <mxGeometry x="998" y="48" width="53.33" height="53.33" as="geometry" />
        </mxCell>
        <mxCell id="wv7daCviZKQoiw0kIBDT-500" value="" style="verticalLabelPosition=bottom;verticalAlign=top;html=1;shape=mxgraph.basic.donut;dx=0.12;strokeColor=none;fillColor=#10739E;fontSize=10;align=center;fillOpacity=20;shadow=0;labelBackgroundColor=#000000;sketch=0;movable=0;resizable=0;deletable=0;rotatable=1;container=0;recursiveResize=0;connectable=0;allowArrows=0;expand=0;editable=0;cloneable=0;" parent="1" vertex="1">
          <mxGeometry x="250.876304262572" y="49" width="79.58912787716068" height="74.34940770450515" as="geometry" />
        </mxCell>
        <mxCell id="wv7daCviZKQoiw0kIBDT-563" value="" style="verticalLabelPosition=bottom;verticalAlign=top;html=1;shape=mxgraph.basic.donut;dx=10;strokeColor=none;fillColor=#10739E;fontSize=12;align=center;fillOpacity=20;shadow=0;labelBackgroundColor=#000000;sketch=0;connectable=0;allowArrows=0;dropTarget=0;recursiveResize=0;expand=0;editable=0;movable=0;resizable=0;deletable=0;cloneable=0;rotatable=0;" parent="1" vertex="1">
          <mxGeometry x="250.87999999999997" y="50.000000000000114" width="75" height="75" as="geometry" />
        </mxCell>
        <mxCell id="wv7daCviZKQoiw0kIBDT-564" value="&lt;div&gt;&lt;span style=&quot;font-size: 12px&quot;&gt;Glide&lt;/span&gt;&lt;/div&gt;" style="verticalLabelPosition=middle;verticalAlign=middle;html=1;shape=mxgraph.basic.partConcEllipse;startAngle=0.5063628056739959;endAngle=0.5221378066508926;arcWidth=0.25;strokeColor=none;fillColor=#10739E;fontSize=22;fontColor=#10739E;align=center;fontStyle=1;resizable=0;" parent="wv7daCviZKQoiw0kIBDT-563" vertex="1">
          <mxGeometry width="75" height="75" as="geometry" />
        </mxCell>
        <mxCell id="wv7daCviZKQoiw0kIBDT-392" value="" style="html=1;shadow=0;dashed=0;align=center;verticalAlign=middle;shape=mxgraph.arrows2.arrow;dy=0.6;dx=40;notch=0;labelBackgroundColor=#ffffff;sketch=0;strokeWidth=1;fontColor=#000000;fillColor=#FF3333;strokeColor=#FF3333;movable=1;resizable=0;rotatable=0;cloneable=0;deletable=0;expand=0;recursiveResize=0;editable=0;allowArrows=0;connectable=0;" parent="1" vertex="1">
          <mxGeometry x="1060" y="801.46" width="20" height="12.6" as="geometry" />
        </mxCell>
        <mxCell id="wv7daCviZKQoiw0kIBDT-223" value="" style="shape=image;html=1;verticalAlign=top;verticalLabelPosition=bottom;labelBackgroundColor=#ffffff;imageAspect=0;aspect=fixed;image=https://cdn3.iconfinder.com/data/icons/construction-138/200/Ruler-128.png;shadow=0;strokeColor=#FFFFFF;fillColor=#000000;fontColor=#FFFFFF;rotation=-45;movable=0;editable=0;deletable=0;resizable=0;rotatable=0;" parent="1" vertex="1">
          <mxGeometry x="716.38" y="706.51" width="128" height="128" as="geometry" />
        </mxCell>
        <mxCell id="wv7daCviZKQoiw0kIBDT-240" value="Decay" style="text;html=1;strokeColor=none;fillColor=none;align=center;verticalAlign=middle;whiteSpace=wrap;rounded=0;shadow=0;labelBackgroundColor=#FFFFFF;fontColor=#000000;movable=0;editable=0;deletable=0;allowArrows=0;expand=0;" parent="1" vertex="1">
          <mxGeometry x="760.38" y="850.51" width="40" height="20" as="geometry" />
        </mxCell>
        <mxCell id="wv7daCviZKQoiw0kIBDT-222" value="" style="shape=image;html=1;verticalAlign=top;verticalLabelPosition=bottom;labelBackgroundColor=#ffffff;imageAspect=0;aspect=fixed;image=https://cdn3.iconfinder.com/data/icons/construction-138/200/Ruler-128.png;shadow=0;strokeColor=#FFFFFF;fillColor=#000000;rotation=-45;movable=0;editable=0;deletable=0;resizable=0;rotatable=0;" parent="1" vertex="1">
          <mxGeometry x="659.87" y="706.51" width="128" height="128" as="geometry" />
        </mxCell>
        <mxCell id="wv7daCviZKQoiw0kIBDT-242" value="Attack" style="text;html=1;strokeColor=none;fillColor=none;align=center;verticalAlign=middle;whiteSpace=wrap;rounded=0;shadow=0;labelBackgroundColor=#ffffff;fontColor=#000000;movable=0;editable=0;deletable=0;allowArrows=0;expand=0;" parent="1" vertex="1">
          <mxGeometry x="703.87" y="850.51" width="40" height="20" as="geometry" />
        </mxCell>
        <mxCell id="wv7daCviZKQoiw0kIBDT-567" value="&lt;h1&gt;MiniBrute 2(s)&lt;/h1&gt;&lt;p&gt;SImple draw.io-based editor for Arturia MiniBrute 2(s) patches&lt;/p&gt;&lt;p&gt;https://github.com/mberndtgen/mb2sPatchEditor&lt;br&gt;&lt;/p&gt;" style="text;html=1;strokeColor=none;fillColor=none;spacing=5;spacingTop=-20;whiteSpace=wrap;overflow=hidden;rounded=0;shadow=0;labelBackgroundColor=#FFFFFF;sketch=0;fontSize=12;fontColor=#000000;" parent="1" vertex="1">
          <mxGeometry x="10" y="790" width="330" height="120" as="geometry" />
        </mxCell>
        <mxCell id="wv7daCviZKQoiw0kIBDT-275" value="" style="group;editable=0;movable=1;cloneable=0;deletable=0;fixDash=0;backgroundOutline=0;allowArrows=0;dropTarget=0;recursiveResize=0;expand=0;resizable=0;" parent="1" vertex="1" connectable="0">
          <mxGeometry x="370" y="827" width="50" height="20" as="geometry" />
        </mxCell>
        <mxCell id="wv7daCviZKQoiw0kIBDT-269" value="" style="rounded=1;whiteSpace=wrap;html=1;shadow=0;labelBackgroundColor=#ffffff;sketch=0;strokeColor=#FFFFFF;fillColor=#000000;fontColor=#000000;editable=0;movable=1;cloneable=0;deletable=0;fixDash=0;backgroundOutline=1;connectable=0;allowArrows=0;recursiveResize=0;expand=0;" parent="wv7daCviZKQoiw0kIBDT-275" vertex="1">
          <mxGeometry width="50" height="20" as="geometry" />
        </mxCell>
        <mxCell id="wv7daCviZKQoiw0kIBDT-271" value="" style="endArrow=none;html=1;strokeColor=#FFFFFF;strokeWidth=3;fontColor=#000000;entryX=1;entryY=0.5;entryDx=0;entryDy=0;exitX=0;exitY=0.5;exitDx=0;exitDy=0;editable=0;movable=1;cloneable=0;deletable=0;fixDash=0;backgroundOutline=0;startFill=0;endFill=0;anchorPointDirection=0;bendable=0;" parent="wv7daCviZKQoiw0kIBDT-275" source="wv7daCviZKQoiw0kIBDT-269" target="wv7daCviZKQoiw0kIBDT-269" edge="1">
          <mxGeometry width="50" height="50" relative="1" as="geometry">
            <mxPoint x="-120" y="-120" as="sourcePoint" />
            <mxPoint x="-70" y="-170" as="targetPoint" />
          </mxGeometry>
        </mxCell>
        <mxCell id="wv7daCviZKQoiw0kIBDT-312" value="" style="rounded=1;whiteSpace=wrap;html=1;shadow=0;labelBackgroundColor=#ffffff;sketch=0;strokeColor=#FFFFFF;fillColor=#000000;fontColor=#000000;editable=0;movable=1;cloneable=0;deletable=0;fixDash=0;backgroundOutline=1;" parent="1" vertex="1">
          <mxGeometry x="422" y="827" width="50" height="20" as="geometry" />
        </mxCell>
        <mxCell id="wv7daCviZKQoiw0kIBDT-313" value="" style="endArrow=none;html=1;strokeColor=#FFFFFF;strokeWidth=3;fontColor=#000000;entryX=1;entryY=0.5;entryDx=0;entryDy=0;exitX=0;exitY=0.5;exitDx=0;exitDy=0;editable=0;movable=1;cloneable=0;deletable=0;fixDash=0;backgroundOutline=1;" parent="1" source="wv7daCviZKQoiw0kIBDT-312" target="wv7daCviZKQoiw0kIBDT-312" edge="1">
          <mxGeometry width="50" height="50" relative="1" as="geometry">
            <mxPoint x="301" y="728" as="sourcePoint" />
            <mxPoint x="351" y="678" as="targetPoint" />
          </mxGeometry>
        </mxCell>
        <mxCell id="wv7daCviZKQoiw0kIBDT-317" value="" style="rounded=1;whiteSpace=wrap;html=1;shadow=0;labelBackgroundColor=#ffffff;sketch=0;strokeColor=#FFFFFF;fillColor=#000000;fontColor=#000000;editable=0;movable=1;cloneable=0;deletable=0;fixDash=0;backgroundOutline=1;" parent="1" vertex="1">
          <mxGeometry x="471.99" y="696.75" width="50" height="20" as="geometry" />
        </mxCell>
        <mxCell id="wv7daCviZKQoiw0kIBDT-318" value="" style="endArrow=none;html=1;strokeColor=#FFFFFF;strokeWidth=3;fontColor=#000000;entryX=1;entryY=0.5;entryDx=0;entryDy=0;exitX=0;exitY=0.5;exitDx=0;exitDy=0;editable=0;movable=1;cloneable=0;deletable=0;fixDash=0;backgroundOutline=1;" parent="1" source="wv7daCviZKQoiw0kIBDT-317" target="wv7daCviZKQoiw0kIBDT-317" edge="1">
          <mxGeometry width="50" height="50" relative="1" as="geometry">
            <mxPoint x="351.99" y="534.75" as="sourcePoint" />
            <mxPoint x="401.99" y="484.75" as="targetPoint" />
          </mxGeometry>
        </mxCell>
        <mxCell id="wv7daCviZKQoiw0kIBDT-319" value="" style="rounded=1;whiteSpace=wrap;html=1;shadow=0;labelBackgroundColor=#ffffff;sketch=0;strokeColor=#FFFFFF;fillColor=#000000;fontColor=#000000;editable=0;movable=1;cloneable=0;deletable=0;fixDash=1;backgroundOutline=1;" parent="1" vertex="1">
          <mxGeometry x="524" y="827" width="50" height="20" as="geometry" />
        </mxCell>
        <mxCell id="wv7daCviZKQoiw0kIBDT-320" value="" style="endArrow=none;html=1;strokeColor=#FFFFFF;strokeWidth=3;fontColor=#000000;entryX=1;entryY=0.5;entryDx=0;entryDy=0;exitX=0;exitY=0.5;exitDx=0;exitDy=0;editable=0;movable=1;cloneable=0;deletable=0;fixDash=1;backgroundOutline=1;" parent="1" source="wv7daCviZKQoiw0kIBDT-319" target="wv7daCviZKQoiw0kIBDT-319" edge="1">
          <mxGeometry width="50" height="50" relative="1" as="geometry">
            <mxPoint x="404" y="665" as="sourcePoint" />
            <mxPoint x="454" y="615" as="targetPoint" />
          </mxGeometry>
        </mxCell>
        <mxCell id="wv7daCviZKQoiw0kIBDT-321" value="" style="rounded=1;whiteSpace=wrap;html=1;shadow=0;labelBackgroundColor=#ffffff;sketch=0;strokeColor=#FFFFFF;fillColor=#000000;fontColor=#000000;editable=0;movable=1;cloneable=0;deletable=0;fixDash=1;backgroundOutline=1;" parent="1" vertex="1">
          <mxGeometry x="574.39" y="827" width="50" height="20" as="geometry" />
        </mxCell>
        <mxCell id="wv7daCviZKQoiw0kIBDT-322" value="" style="endArrow=none;html=1;strokeColor=#FFFFFF;strokeWidth=3;fontColor=#000000;entryX=1;entryY=0.5;entryDx=0;entryDy=0;exitX=0;exitY=0.5;exitDx=0;exitDy=0;editable=0;movable=1;cloneable=0;deletable=0;fixDash=1;backgroundOutline=1;" parent="1" source="wv7daCviZKQoiw0kIBDT-321" target="wv7daCviZKQoiw0kIBDT-321" edge="1">
          <mxGeometry width="50" height="50" relative="1" as="geometry">
            <mxPoint x="454.39" y="665" as="sourcePoint" />
            <mxPoint x="504.39" y="615" as="targetPoint" />
          </mxGeometry>
        </mxCell>
        <mxCell id="wv7daCviZKQoiw0kIBDT-323" value="" style="rounded=1;whiteSpace=wrap;html=1;shadow=0;labelBackgroundColor=#ffffff;sketch=0;strokeColor=#FFFFFF;fillColor=#000000;fontColor=#000000;editable=0;movable=1;cloneable=0;deletable=0;fixDash=1;backgroundOutline=1;" parent="1" vertex="1">
          <mxGeometry x="626.11" y="781.46" width="50" height="20" as="geometry" />
        </mxCell>
        <mxCell id="wv7daCviZKQoiw0kIBDT-324" value="" style="endArrow=none;html=1;strokeColor=#FFFFFF;strokeWidth=3;fontColor=#000000;entryX=1;entryY=0.5;entryDx=0;entryDy=0;exitX=0;exitY=0.5;exitDx=0;exitDy=0;editable=0;movable=1;cloneable=0;deletable=0;fixDash=1;backgroundOutline=1;" parent="1" source="wv7daCviZKQoiw0kIBDT-323" target="wv7daCviZKQoiw0kIBDT-323" edge="1">
          <mxGeometry width="50" height="50" relative="1" as="geometry">
            <mxPoint x="506.11" y="665" as="sourcePoint" />
            <mxPoint x="556.11" y="615" as="targetPoint" />
          </mxGeometry>
        </mxCell>
        <mxCell id="wv7daCviZKQoiw0kIBDT-325" value="" style="rounded=1;whiteSpace=wrap;html=1;shadow=0;labelBackgroundColor=#ffffff;sketch=0;strokeColor=#FFFFFF;fillColor=#000000;fontColor=#000000;editable=0;movable=1;cloneable=0;deletable=0;fixDash=1;backgroundOutline=1;" parent="1" vertex="1">
          <mxGeometry x="698.21" y="827" width="50" height="20" as="geometry" />
        </mxCell>
        <mxCell id="wv7daCviZKQoiw0kIBDT-326" value="" style="endArrow=none;html=1;strokeColor=#FFFFFF;strokeWidth=3;fontColor=#000000;entryX=1;entryY=0.5;entryDx=0;entryDy=0;exitX=0;exitY=0.5;exitDx=0;exitDy=0;editable=0;movable=1;cloneable=0;deletable=0;fixDash=1;backgroundOutline=1;" parent="1" source="wv7daCviZKQoiw0kIBDT-325" target="wv7daCviZKQoiw0kIBDT-325" edge="1">
          <mxGeometry width="50" height="50" relative="1" as="geometry">
            <mxPoint x="578.21" y="665" as="sourcePoint" />
            <mxPoint x="628.21" y="615" as="targetPoint" />
          </mxGeometry>
        </mxCell>
        <mxCell id="wv7daCviZKQoiw0kIBDT-327" value="" style="rounded=1;whiteSpace=wrap;html=1;shadow=0;labelBackgroundColor=#ffffff;sketch=0;strokeColor=#FFFFFF;fillColor=#000000;fontColor=#000000;editable=0;movable=1;cloneable=0;deletable=0;fixDash=0;backgroundOutline=1;" parent="1" vertex="1">
          <mxGeometry x="755.38" y="827" width="50" height="20" as="geometry" />
        </mxCell>
        <mxCell id="wv7daCviZKQoiw0kIBDT-328" value="" style="endArrow=none;html=1;strokeColor=#FFFFFF;strokeWidth=3;fontColor=#000000;entryX=1;entryY=0.5;entryDx=0;entryDy=0;exitX=0;exitY=0.5;exitDx=0;exitDy=0;editable=0;movable=1;cloneable=0;deletable=0;fixDash=0;backgroundOutline=1;" parent="1" source="wv7daCviZKQoiw0kIBDT-327" target="wv7daCviZKQoiw0kIBDT-327" edge="1">
          <mxGeometry width="50" height="50" relative="1" as="geometry">
            <mxPoint x="635.38" y="665" as="sourcePoint" />
            <mxPoint x="685.38" y="615" as="targetPoint" />
          </mxGeometry>
        </mxCell>
        <mxCell id="wv7daCviZKQoiw0kIBDT-329" value="" style="rounded=1;whiteSpace=wrap;html=1;shadow=0;labelBackgroundColor=#ffffff;sketch=0;strokeColor=#FFFFFF;fillColor=#000000;fontColor=#000000;editable=0;movable=1;cloneable=0;deletable=0;fixDash=0;backgroundOutline=1;" parent="1" vertex="1">
          <mxGeometry x="808.89" y="696.75" width="50" height="20" as="geometry" />
        </mxCell>
        <mxCell id="wv7daCviZKQoiw0kIBDT-330" value="" style="endArrow=none;html=1;strokeColor=#FFFFFF;strokeWidth=3;fontColor=#000000;entryX=1;entryY=0.5;entryDx=0;entryDy=0;exitX=0;exitY=0.5;exitDx=0;exitDy=0;editable=0;movable=1;cloneable=0;deletable=0;fixDash=0;backgroundOutline=1;" parent="1" source="wv7daCviZKQoiw0kIBDT-329" target="wv7daCviZKQoiw0kIBDT-329" edge="1">
          <mxGeometry width="50" height="50" relative="1" as="geometry">
            <mxPoint x="688.89" y="534.75" as="sourcePoint" />
            <mxPoint x="738.89" y="484.75" as="targetPoint" />
          </mxGeometry>
        </mxCell>
        <mxCell id="wv7daCviZKQoiw0kIBDT-331" value="" style="rounded=1;whiteSpace=wrap;html=1;shadow=0;labelBackgroundColor=#ffffff;sketch=0;strokeColor=#FFFFFF;fillColor=#000000;fontColor=#000000;editable=0;movable=1;cloneable=0;deletable=0;fixDash=0;backgroundOutline=1;" parent="1" vertex="1">
          <mxGeometry x="863.87" y="696.75" width="50" height="20" as="geometry" />
        </mxCell>
        <mxCell id="wv7daCviZKQoiw0kIBDT-332" value="" style="endArrow=none;html=1;strokeColor=#FFFFFF;strokeWidth=3;fontColor=#000000;entryX=1;entryY=0.5;entryDx=0;entryDy=0;exitX=0;exitY=0.5;exitDx=0;exitDy=0;editable=0;movable=1;cloneable=0;deletable=0;fixDash=0;backgroundOutline=1;" parent="1" source="wv7daCviZKQoiw0kIBDT-331" target="wv7daCviZKQoiw0kIBDT-331" edge="1">
          <mxGeometry width="50" height="50" relative="1" as="geometry">
            <mxPoint x="743.87" y="534.75" as="sourcePoint" />
            <mxPoint x="793.87" y="484.75" as="targetPoint" />
          </mxGeometry>
        </mxCell>
        <mxCell id="wv7daCviZKQoiw0kIBDT-333" value="" style="rounded=1;whiteSpace=wrap;html=1;shadow=0;labelBackgroundColor=#ffffff;sketch=0;strokeColor=#FFFFFF;fillColor=#000000;fontColor=#000000;editable=0;movable=1;cloneable=0;deletable=0;fixDash=0;backgroundOutline=1;" parent="1" vertex="1">
          <mxGeometry x="947.8699999999999" y="827" width="50" height="20" as="geometry" />
        </mxCell>
        <mxCell id="wv7daCviZKQoiw0kIBDT-334" value="" style="endArrow=none;html=1;strokeColor=#FFFFFF;strokeWidth=3;fontColor=#000000;entryX=1;entryY=0.5;entryDx=0;entryDy=0;exitX=0;exitY=0.5;exitDx=0;exitDy=0;editable=0;movable=1;cloneable=0;deletable=0;fixDash=0;backgroundOutline=1;" parent="1" source="wv7daCviZKQoiw0kIBDT-333" target="wv7daCviZKQoiw0kIBDT-333" edge="1">
          <mxGeometry width="50" height="50" relative="1" as="geometry">
            <mxPoint x="827.87" y="665" as="sourcePoint" />
            <mxPoint x="877.87" y="615" as="targetPoint" />
          </mxGeometry>
        </mxCell>
        <mxCell id="wv7daCviZKQoiw0kIBDT-335" value="" style="rounded=1;whiteSpace=wrap;html=1;shadow=0;labelBackgroundColor=#ffffff;sketch=0;strokeColor=#FFFFFF;fillColor=#000000;fontColor=#000000;editable=0;movable=1;cloneable=0;deletable=0;fixDash=0;backgroundOutline=1;" parent="1" vertex="1">
          <mxGeometry x="1002.3800000000001" y="716.75" width="50" height="20" as="geometry" />
        </mxCell>
        <mxCell id="wv7daCviZKQoiw0kIBDT-336" value="" style="endArrow=none;html=1;strokeColor=#FFFFFF;strokeWidth=3;fontColor=#000000;entryX=1;entryY=0.5;entryDx=0;entryDy=0;exitX=0;exitY=0.5;exitDx=0;exitDy=0;editable=0;movable=1;cloneable=0;deletable=0;fixDash=0;backgroundOutline=1;" parent="1" source="wv7daCviZKQoiw0kIBDT-335" target="wv7daCviZKQoiw0kIBDT-335" edge="1">
          <mxGeometry width="50" height="50" relative="1" as="geometry">
            <mxPoint x="880.46" y="554.75" as="sourcePoint" />
            <mxPoint x="930.46" y="504.75" as="targetPoint" />
          </mxGeometry>
        </mxCell>
        <mxCell id="2sqELsF0OTqMlu_PPEut-1" value="LP" style="text;html=1;strokeColor=none;fillColor=none;align=center;verticalAlign=middle;whiteSpace=wrap;rounded=0;" vertex="1" parent="1">
          <mxGeometry x="393" y="363" width="40" height="20" as="geometry" />
        </mxCell>
      </root>
    </mxGraphModel>
  </diagram>
</mxfile>
